<svg width="130" height="48" viewBox="0 0 130 48" fill="none" xmlns="http://www.w3.org/2000/svg">
<path d="M0 0H130L110.924 20L130 40H0V0Z" fill="#ED744A"/>
<path d="M15 48L0 40H15V48Z" fill="#9B3815"/>
<path d="M33.5256 29H29.571L35.5966 11.5455H40.3523L46.3693 29H42.4148L38.0426 15.5341H37.9062L33.5256 29ZM33.2784 22.1392H42.6193V25.0199H33.2784V22.1392ZM51.4787 29H47.5241L53.5497 11.5455H58.3054L64.3224 29H60.3679L55.9957 15.5341H55.8594L51.4787 29ZM51.2315 22.1392H60.5724V25.0199H51.2315V22.1392ZM69.4318 29H65.4773L71.5028 11.5455H76.2585L82.2756 29H78.321L73.9489 15.5341H73.8125L69.4318 29ZM69.1847 22.1392H78.5256V25.0199H69.1847V22.1392ZM89.4901 26.3409V14.2727H92.5412V26.3409H89.4901ZM84.9815 21.8324V18.7812H97.0497V21.8324H84.9815Z" fill="white"/>
</svg>
