<svg width="946" height="221" viewBox="0 0 946 221" fill="none" xmlns="http://www.w3.org/2000/svg">
<g clip-path="url(#clip0_116_11031)">
<path fill-rule="evenodd" clip-rule="evenodd" d="M106.306 189.006L46.8584 182.362L0 117.856L77.7196 136.728L106.306 189.006Z" fill="url(#paint0_linear_116_11031)"/>
<path fill-rule="evenodd" clip-rule="evenodd" d="M104.51 192.793L80.8495 219.616L32.8818 220.447L68.8535 188.869L104.51 192.793Z" fill="url(#paint1_linear_116_11031)"/>
<path fill-rule="evenodd" clip-rule="evenodd" d="M106.306 189.006L46.8584 182.362L0 117.856L106.306 189.006Z" fill="url(#paint2_linear_116_11031)"/>
<path fill-rule="evenodd" clip-rule="evenodd" d="M104.51 192.793L32.8818 220.447L68.8535 188.869L104.51 192.793Z" fill="url(#paint3_linear_116_11031)"/>
<path fill-rule="evenodd" clip-rule="evenodd" d="M73.5659 107.914L110.348 184.066L147.132 107.914L110.348 0.151367L73.5659 107.914Z" fill="url(#paint4_linear_116_11031)"/>
<path fill-rule="evenodd" clip-rule="evenodd" d="M114.394 189.006L173.841 182.362L220.7 117.856L142.98 136.728L114.394 189.006Z" fill="url(#paint5_linear_116_11031)"/>
<path fill-rule="evenodd" clip-rule="evenodd" d="M116.189 192.793L139.85 219.616L187.818 220.447L151.846 188.869L116.189 192.793Z" fill="url(#paint6_linear_116_11031)"/>
<path fill-rule="evenodd" clip-rule="evenodd" d="M110.349 0.151367V184.066L147.132 107.914L110.349 0.151367Z" fill="url(#paint7_linear_116_11031)"/>
<path fill-rule="evenodd" clip-rule="evenodd" d="M114.394 189.006L173.841 182.362L220.7 117.856L114.394 189.006Z" fill="url(#paint8_linear_116_11031)"/>
<path fill-rule="evenodd" clip-rule="evenodd" d="M116.189 192.793L187.818 220.447L151.846 188.869L116.189 192.793Z" fill="url(#paint9_linear_116_11031)"/>
</g>
<path d="M368.55 94.4572H345.666C345.248 91.4965 344.394 88.8666 343.105 86.5677C341.817 84.2339 340.162 82.2485 338.142 80.6114C336.122 78.9743 333.788 77.7203 331.141 76.8495C328.528 75.9787 325.689 75.5433 322.624 75.5433C317.086 75.5433 312.261 76.9192 308.151 79.6709C304.041 82.3878 300.854 86.3587 298.59 91.5836C296.326 96.7736 295.194 103.078 295.194 110.498C295.194 118.126 296.326 124.535 298.59 129.725C300.889 134.915 304.093 138.834 308.203 141.481C312.314 144.128 317.068 145.452 322.467 145.452C325.498 145.452 328.302 145.051 330.879 144.25C333.492 143.449 335.808 142.282 337.828 140.749C339.849 139.182 341.521 137.284 342.844 135.054C344.203 132.825 345.143 130.282 345.666 127.426L368.55 127.531C367.958 132.442 366.478 137.179 364.109 141.742C361.776 146.27 358.623 150.328 354.652 153.916C350.716 157.469 346.014 160.29 340.545 162.38C335.111 164.435 328.963 165.463 322.102 165.463C312.557 165.463 304.024 163.303 296.5 158.984C289.011 154.665 283.089 148.413 278.735 140.227C274.416 132.041 272.256 122.132 272.256 110.498C272.256 98.8287 274.451 88.9015 278.84 80.7159C283.229 72.5303 289.185 66.2953 296.709 62.0109C304.233 57.6917 312.697 55.5321 322.102 55.5321C328.302 55.5321 334.049 56.4029 339.344 58.1445C344.673 59.8861 349.393 62.4289 353.503 65.7728C357.613 69.0819 360.957 73.1398 363.535 77.9467C366.147 82.7536 367.819 88.2571 368.55 94.4572ZM407.24 165.515C402.12 165.515 397.557 164.627 393.551 162.851C389.546 161.039 386.376 158.375 384.042 154.857C381.743 151.304 380.594 146.88 380.594 141.585C380.594 137.127 381.412 133.382 383.049 130.352C384.687 127.322 386.916 124.883 389.737 123.037C392.559 121.191 395.763 119.798 399.351 118.857C402.973 117.917 406.77 117.255 410.741 116.872C415.409 116.384 419.171 115.931 422.027 115.513C424.883 115.061 426.956 114.399 428.244 113.528C429.533 112.657 430.178 111.368 430.178 109.662V109.348C430.178 106.039 429.133 103.479 427.043 101.668C424.988 99.8562 422.062 98.9506 418.265 98.9506C414.259 98.9506 411.072 99.8388 408.703 101.615C406.335 103.357 404.767 105.551 404.001 108.199L383.415 106.527C384.46 101.65 386.515 97.4354 389.58 93.8825C392.646 90.2948 396.599 87.543 401.441 85.6272C406.317 83.6766 411.96 82.7013 418.369 82.7013C422.828 82.7013 427.095 83.2238 431.17 84.2688C435.28 85.3138 438.92 86.9335 442.09 89.1279C445.295 91.3223 447.82 94.1437 449.666 97.5921C451.512 101.006 452.435 105.099 452.435 109.871V164H431.327V152.871H430.7C429.411 155.379 427.687 157.591 425.527 159.507C423.368 161.388 420.773 162.868 417.742 163.948C414.712 164.993 411.211 165.515 407.24 165.515ZM413.615 150.154C416.889 150.154 419.78 149.51 422.288 148.221C424.796 146.897 426.764 145.121 428.192 142.892C429.62 140.662 430.334 138.137 430.334 135.316V126.799C429.638 127.252 428.68 127.67 427.461 128.053C426.276 128.401 424.935 128.732 423.437 129.046C421.94 129.324 420.442 129.586 418.944 129.829C417.446 130.038 416.088 130.23 414.869 130.404C412.256 130.787 409.975 131.397 408.024 132.233C406.074 133.069 404.558 134.201 403.479 135.629C402.399 137.022 401.859 138.764 401.859 140.854C401.859 143.884 402.956 146.201 405.151 147.803C407.38 149.37 410.201 150.154 413.615 150.154ZM491.961 117.603V164H469.704V83.7463H490.916V97.9056H491.857C493.633 93.2381 496.612 89.5459 500.791 86.829C504.971 84.0772 510.039 82.7013 515.996 82.7013C521.569 82.7013 526.428 83.9205 530.573 86.3587C534.718 88.797 537.94 92.2802 540.239 96.8084C542.538 101.302 543.687 106.666 543.687 112.901V164H521.43V116.872C521.464 111.96 520.21 108.129 517.668 105.377C515.125 102.591 511.624 101.197 507.166 101.197C504.17 101.197 501.523 101.842 499.224 103.13C496.96 104.419 495.183 106.3 493.895 108.773C492.641 111.212 491.996 114.155 491.961 117.603ZM583.488 117.603V164H561.23V83.7463H582.443V97.9056H583.383C585.16 93.2381 588.138 89.5459 592.318 86.829C596.498 84.0772 601.566 82.7013 607.522 82.7013C613.095 82.7013 617.954 83.9205 622.099 86.3587C626.244 88.797 629.466 92.2802 631.765 96.8084C634.064 101.302 635.214 106.666 635.214 112.901V164H612.956V116.872C612.991 111.96 611.737 108.129 609.194 105.377C606.651 102.591 603.151 101.197 598.692 101.197C595.696 101.197 593.049 101.842 590.75 103.13C588.486 104.419 586.71 106.3 585.421 108.773C584.167 111.212 583.523 114.155 583.488 117.603ZM675.641 165.515C670.521 165.515 665.958 164.627 661.952 162.851C657.946 161.039 654.776 158.375 652.443 154.857C650.144 151.304 648.994 146.88 648.994 141.585C648.994 137.127 649.813 133.382 651.45 130.352C653.087 127.322 655.316 124.883 658.138 123.037C660.959 121.191 664.164 119.798 667.751 118.857C671.374 117.917 675.171 117.255 679.142 116.872C683.809 116.384 687.571 115.931 690.427 115.513C693.284 115.061 695.356 114.399 696.645 113.528C697.934 112.657 698.578 111.368 698.578 109.662V109.348C698.578 106.039 697.533 103.479 695.443 101.668C693.388 99.8562 690.462 98.9506 686.665 98.9506C682.66 98.9506 679.473 99.8388 677.104 101.615C674.735 103.357 673.168 105.551 672.402 108.199L651.816 106.527C652.861 101.65 654.916 97.4354 657.981 93.8825C661.046 90.2948 665 87.543 669.841 85.6272C674.718 83.6766 680.361 82.7013 686.77 82.7013C691.228 82.7013 695.495 83.2238 699.571 84.2688C703.681 85.3138 707.321 86.9335 710.491 89.1279C713.695 91.3223 716.221 94.1437 718.067 97.5921C719.913 101.006 720.836 105.099 720.836 109.871V164H699.728V152.871H699.101C697.812 155.379 696.088 157.591 693.928 159.507C691.768 161.388 689.173 162.868 686.143 163.948C683.113 164.993 679.612 165.515 675.641 165.515ZM682.015 150.154C685.29 150.154 688.181 149.51 690.689 148.221C693.197 146.897 695.165 145.121 696.593 142.892C698.021 140.662 698.735 138.137 698.735 135.316V126.799C698.038 127.252 697.08 127.67 695.861 128.053C694.677 128.401 693.336 128.732 691.838 129.046C690.34 129.324 688.842 129.586 687.345 129.829C685.847 130.038 684.488 130.23 683.269 130.404C680.657 130.787 678.375 131.397 676.425 132.233C674.474 133.069 672.959 134.201 671.879 135.629C670.799 137.022 670.259 138.764 670.259 140.854C670.259 143.884 671.357 146.201 673.551 147.803C675.78 149.37 678.602 150.154 682.015 150.154ZM738.522 164V56.9951H760.78V97.2264H761.459C762.434 95.0668 763.845 92.8724 765.691 90.6431C767.572 88.379 770.011 86.4981 773.006 85.0003C776.037 83.4676 779.798 82.7013 784.292 82.7013C790.144 82.7013 795.543 84.2339 800.489 87.2992C805.435 90.3296 809.388 94.9101 812.349 101.041C815.31 107.136 816.79 114.782 816.79 123.978C816.79 132.93 815.345 140.488 812.454 146.653C809.597 152.784 805.696 157.434 800.75 160.604C795.839 163.739 790.335 165.306 784.24 165.306C779.92 165.306 776.246 164.592 773.215 163.164C770.22 161.736 767.764 159.942 765.848 157.782C763.932 155.588 762.469 153.376 761.459 151.147H760.466V164H738.522ZM760.31 123.873C760.31 128.645 760.972 132.808 762.295 136.361C763.619 139.913 765.535 142.683 768.043 144.668C770.55 146.619 773.598 147.594 777.186 147.594C780.809 147.594 783.874 146.601 786.382 144.616C788.89 142.596 790.788 139.809 792.077 136.256C793.4 132.668 794.062 128.541 794.062 123.873C794.062 119.24 793.418 115.165 792.129 111.647C790.84 108.129 788.942 105.377 786.434 103.392C783.926 101.406 780.843 100.414 777.186 100.414C773.563 100.414 770.498 101.371 767.99 103.287C765.517 105.203 763.619 107.92 762.295 111.438C760.972 114.956 760.31 119.101 760.31 123.873ZM831.642 164V83.7463H853.9V164H831.642ZM842.823 73.4011C839.514 73.4011 836.675 72.3039 834.307 70.1094C831.973 67.8802 830.806 65.2155 830.806 62.1154C830.806 59.0502 831.973 56.4203 834.307 54.2259C836.675 51.9966 839.514 50.882 842.823 50.882C846.132 50.882 848.954 51.9966 851.287 54.2259C853.656 56.4203 854.84 59.0502 854.84 62.1154C854.84 65.2155 853.656 67.8802 851.287 70.1094C848.954 72.3039 846.132 73.4011 842.823 73.4011ZM938.503 106.631L918.126 107.885C917.778 106.143 917.029 104.576 915.88 103.183C914.73 101.755 913.215 100.623 911.334 99.7866C909.488 98.9158 907.276 98.4804 904.698 98.4804C901.25 98.4804 898.342 99.2119 895.973 100.675C893.604 102.103 892.42 104.019 892.42 106.422C892.42 108.338 893.186 109.958 894.719 111.281C896.252 112.605 898.881 113.667 902.609 114.468L917.134 117.394C924.936 118.997 930.753 121.574 934.585 125.127C938.416 128.68 940.332 133.348 940.332 139.13C940.332 144.389 938.782 149.005 935.682 152.976C932.617 156.946 928.402 160.047 923.038 162.276C917.708 164.47 911.56 165.567 904.594 165.567C893.97 165.567 885.506 163.356 879.201 158.932C872.931 154.473 869.257 148.413 868.177 140.749L890.069 139.6C890.731 142.839 892.333 145.312 894.876 147.019C897.419 148.691 900.675 149.527 904.646 149.527C908.547 149.527 911.682 148.778 914.051 147.28C916.454 145.748 917.674 143.78 917.708 141.376C917.674 139.356 916.82 137.702 915.148 136.413C913.476 135.089 910.899 134.079 907.415 133.382L893.517 130.613C885.68 129.046 879.846 126.329 876.014 122.462C872.217 118.596 870.319 113.667 870.319 107.676C870.319 102.521 871.712 98.0798 874.499 94.3527C877.32 90.6257 881.274 87.752 886.359 85.7317C891.48 83.7115 897.471 82.7013 904.333 82.7013C914.469 82.7013 922.446 84.8435 928.263 89.1279C934.114 93.4123 937.528 99.2467 938.503 106.631Z" fill="#1C8151"/>
<defs>
<linearGradient id="paint0_linear_116_11031" x1="53.1532" y1="117.856" x2="53.1532" y2="189.006" gradientUnits="userSpaceOnUse">
<stop stop-color="#A7E821"/>
<stop offset="1" stop-color="#196608"/>
</linearGradient>
<linearGradient id="paint1_linear_116_11031" x1="32.9853" y1="220.451" x2="32.9853" y2="188.869" gradientUnits="userSpaceOnUse">
<stop stop-color="#045304"/>
<stop offset="1" stop-color="#92D61D"/>
</linearGradient>
<linearGradient id="paint2_linear_116_11031" x1="0.153608" y1="189.015" x2="0.153608" y2="117.856" gradientUnits="userSpaceOnUse">
<stop stop-color="#045304"/>
<stop offset="1" stop-color="#92D61D"/>
</linearGradient>
<linearGradient id="paint3_linear_116_11031" x1="68.6959" y1="188.869" x2="68.6959" y2="220.447" gradientUnits="userSpaceOnUse">
<stop stop-color="#A7E821"/>
<stop offset="1" stop-color="#196608"/>
</linearGradient>
<linearGradient id="paint4_linear_116_11031" x1="110.349" y1="0.151367" x2="110.349" y2="184.066" gradientUnits="userSpaceOnUse">
<stop stop-color="#A7E821"/>
<stop offset="1" stop-color="#196608"/>
</linearGradient>
<linearGradient id="paint5_linear_116_11031" x1="167.547" y1="117.856" x2="167.547" y2="189.006" gradientUnits="userSpaceOnUse">
<stop stop-color="#A7E821"/>
<stop offset="1" stop-color="#196608"/>
</linearGradient>
<linearGradient id="paint6_linear_116_11031" x1="116.293" y1="220.451" x2="116.293" y2="188.869" gradientUnits="userSpaceOnUse">
<stop stop-color="#045304"/>
<stop offset="1" stop-color="#92D61D"/>
</linearGradient>
<linearGradient id="paint7_linear_116_11031" x1="110.402" y1="184.091" x2="110.402" y2="0.151367" gradientUnits="userSpaceOnUse">
<stop stop-color="#045304"/>
<stop offset="1" stop-color="#92D61D"/>
</linearGradient>
<linearGradient id="paint8_linear_116_11031" x1="114.547" y1="189.015" x2="114.547" y2="117.856" gradientUnits="userSpaceOnUse">
<stop stop-color="#045304"/>
<stop offset="1" stop-color="#92D61D"/>
</linearGradient>
<linearGradient id="paint9_linear_116_11031" x1="152.004" y1="188.869" x2="152.004" y2="220.447" gradientUnits="userSpaceOnUse">
<stop stop-color="#A7E821"/>
<stop offset="1" stop-color="#196608"/>
</linearGradient>
<clipPath id="clip0_116_11031">
<rect width="220.698" height="220.698" fill="white" transform="translate(0 0.151367)"/>
</clipPath>
</defs>
</svg>
