<svg width="30" height="30" viewBox="0 0 30 30" fill="none" xmlns="http://www.w3.org/2000/svg">
<g clip-path="url(#clip0_23_1368)">
<path fill-rule="evenodd" clip-rule="evenodd" d="M14.4505 25.6715L6.36959 24.7684L0 16L10.5646 18.5653L14.4505 25.6715Z" fill="url(#paint0_linear_23_1368)"/>
<path fill-rule="evenodd" clip-rule="evenodd" d="M14.2063 26.1857L10.9901 29.8319L4.46973 29.9448L9.35945 25.6523L14.2063 26.1857Z" fill="url(#paint1_linear_23_1368)"/>
<path fill-rule="evenodd" clip-rule="evenodd" d="M14.4505 25.6715L6.36959 24.7684L0 16L14.4505 25.6715Z" fill="url(#paint2_linear_23_1368)"/>
<path fill-rule="evenodd" clip-rule="evenodd" d="M14.2063 26.1857L4.46973 29.9448L9.35945 25.6523L14.2063 26.1857Z" fill="url(#paint3_linear_23_1368)"/>
<path fill-rule="evenodd" clip-rule="evenodd" d="M10 14.6484L14.9999 25L20 14.6484L14.9999 0L10 14.6484Z" fill="url(#paint4_linear_23_1368)"/>
<path fill-rule="evenodd" clip-rule="evenodd" d="M15.5496 25.6715L23.6305 24.7684L30 16L19.4354 18.5653L15.5496 25.6715Z" fill="url(#paint5_linear_23_1368)"/>
<path fill-rule="evenodd" clip-rule="evenodd" d="M15.7935 26.1857L19.0097 29.8319L25.5301 29.9448L20.6403 25.6523L15.7935 26.1857Z" fill="url(#paint6_linear_23_1368)"/>
<path fill-rule="evenodd" clip-rule="evenodd" d="M15 0V25L20 14.6484L15 0Z" fill="url(#paint7_linear_23_1368)"/>
<path fill-rule="evenodd" clip-rule="evenodd" d="M15.5496 25.6715L23.6305 24.7684L30 16L15.5496 25.6715Z" fill="url(#paint8_linear_23_1368)"/>
<path fill-rule="evenodd" clip-rule="evenodd" d="M15.7935 26.1857L25.5301 29.9448L20.6403 25.6523L15.7935 26.1857Z" fill="url(#paint9_linear_23_1368)"/>
</g>
<defs>
<linearGradient id="paint0_linear_23_1368" x1="7.22524" y1="16" x2="7.22524" y2="25.6715" gradientUnits="userSpaceOnUse">
<stop stop-color="#A7E821"/>
<stop offset="1" stop-color="#196608"/>
</linearGradient>
<linearGradient id="paint1_linear_23_1368" x1="4.4838" y1="29.9454" x2="4.4838" y2="25.6523" gradientUnits="userSpaceOnUse">
<stop stop-color="#045304"/>
<stop offset="1" stop-color="#92D61D"/>
</linearGradient>
<linearGradient id="paint2_linear_23_1368" x1="0.0208804" y1="25.6728" x2="0.0208804" y2="16" gradientUnits="userSpaceOnUse">
<stop stop-color="#045304"/>
<stop offset="1" stop-color="#92D61D"/>
</linearGradient>
<linearGradient id="paint3_linear_23_1368" x1="9.33803" y1="25.6523" x2="9.33803" y2="29.9448" gradientUnits="userSpaceOnUse">
<stop stop-color="#A7E821"/>
<stop offset="1" stop-color="#196608"/>
</linearGradient>
<linearGradient id="paint4_linear_23_1368" x1="15" y1="0" x2="15" y2="25" gradientUnits="userSpaceOnUse">
<stop stop-color="#A7E821"/>
<stop offset="1" stop-color="#196608"/>
</linearGradient>
<linearGradient id="paint5_linear_23_1368" x1="22.7748" y1="16" x2="22.7748" y2="25.6715" gradientUnits="userSpaceOnUse">
<stop stop-color="#A7E821"/>
<stop offset="1" stop-color="#196608"/>
</linearGradient>
<linearGradient id="paint6_linear_23_1368" x1="15.8075" y1="29.9454" x2="15.8075" y2="25.6523" gradientUnits="userSpaceOnUse">
<stop stop-color="#045304"/>
<stop offset="1" stop-color="#92D61D"/>
</linearGradient>
<linearGradient id="paint7_linear_23_1368" x1="15.0072" y1="25.0033" x2="15.0072" y2="0" gradientUnits="userSpaceOnUse">
<stop stop-color="#045304"/>
<stop offset="1" stop-color="#92D61D"/>
</linearGradient>
<linearGradient id="paint8_linear_23_1368" x1="15.5704" y1="25.6728" x2="15.5704" y2="16" gradientUnits="userSpaceOnUse">
<stop stop-color="#045304"/>
<stop offset="1" stop-color="#92D61D"/>
</linearGradient>
<linearGradient id="paint9_linear_23_1368" x1="20.6618" y1="25.6523" x2="20.6618" y2="29.9448" gradientUnits="userSpaceOnUse">
<stop stop-color="#A7E821"/>
<stop offset="1" stop-color="#196608"/>
</linearGradient>
<clipPath id="clip0_23_1368">
<rect width="30" height="30" fill="white"/>
</clipPath>
</defs>
</svg>
