<svg width="40" height="40" viewBox="0 0 40 40" fill="none" xmlns="http://www.w3.org/2000/svg">
<path d="M39.1396 39.0253C38.8219 38.8098 38.7323 38.5141 38.7417 38.1411C38.7646 37.2305 38.749 36.3179 38.749 35.3667H38.298C36.2803 35.3667 34.2616 35.3667 32.2439 35.3667C32.1398 35.3667 32.0356 35.3697 31.9315 35.3656C31.5273 35.3494 31.2627 35.1177 31.2523 34.7742C31.2419 34.4154 31.5138 34.1522 31.9346 34.1502C33.2491 34.1431 34.5647 34.1471 35.8793 34.1471C36.8157 34.1471 37.7521 34.1471 38.7188 34.1471V32.9276H38.3084C35.8741 32.9276 33.4387 32.9276 31.0044 32.9276C30.9002 32.9276 30.7961 32.9306 30.6919 32.9276C30.2669 32.9123 29.9961 32.6674 30.0023 32.3087C30.0086 31.9631 30.2711 31.7284 30.6742 31.7111C30.7784 31.707 30.8825 31.7101 30.9867 31.7101C33.421 31.7101 35.8564 31.7101 38.2907 31.7101H38.7292V23.1733H38.3198C35.6512 23.1733 32.9814 23.1733 30.3128 23.1733C30.1825 23.1733 30.0492 23.1855 29.9232 23.1631C29.5867 23.1032 29.3826 22.9009 29.3826 22.5635C29.3826 22.2261 29.5846 22.0229 29.9211 21.9639C30.0471 21.9416 30.1805 21.9538 30.3107 21.9538C32.9668 21.9538 35.623 21.9538 38.2792 21.9538H38.725V20.7342H38.2917C36.248 20.7342 34.2033 20.7342 32.1596 20.7342C32.0294 20.7342 31.895 20.7464 31.77 20.72C31.4544 20.6529 31.2606 20.4557 31.2565 20.1356C31.2523 19.7982 31.4502 19.5929 31.7856 19.5259C31.8981 19.5035 32.019 19.5147 32.1367 19.5147C34.1804 19.5147 36.2251 19.5147 38.2688 19.5147H38.75C38.7584 17.039 38.2386 14.6944 37.2844 12.4332C35.8324 8.99106 33.3533 6.24608 30.5544 4.42083C30.343 4.78263 30.1325 5.14239 29.8982 5.54383C30.218 5.72371 30.5284 5.89749 30.8388 6.07229C31.3377 6.3538 31.4242 6.62617 31.1534 7.10484C30.795 7.73798 30.4336 8.36909 30.0628 8.99512C29.9867 9.12317 29.8773 9.30306 29.7596 9.32237C29.3399 9.39046 29.3961 9.67197 29.3982 9.9484C29.4013 10.3549 29.4076 10.7614 29.3951 11.1679C29.3784 11.7299 28.9336 12.0043 28.4326 11.736C26.9962 10.9667 25.5681 10.1832 24.1462 9.38944C23.6827 9.13029 23.665 8.64247 24.0994 8.32844C24.5067 8.03372 24.94 7.77355 25.3618 7.50017C25.517 7.39956 25.6243 7.31419 25.5775 7.07943C25.5452 6.91784 25.6483 6.71052 25.7379 6.54791C26.091 5.91274 26.4597 5.28467 26.8295 4.65763C27.0597 4.26737 27.3607 4.18912 27.7837 4.40051C27.9566 4.48791 28.1253 4.58344 28.2961 4.67592C28.4555 4.76129 28.6138 4.84767 28.8055 4.95133C29.0315 4.55905 29.2524 4.17591 29.4961 3.75313C26.8431 2.22566 23.9963 1.39231 20.9463 1.24393C17.2412 1.06405 13.7798 1.90147 10.5331 3.72874C10.7726 4.14644 10.9976 4.5377 11.2351 4.95336C11.5945 4.75824 11.9195 4.57632 12.2497 4.40559C12.6872 4.17896 12.9767 4.26432 13.2247 4.68608C13.5799 5.29179 13.9434 5.89241 14.2778 6.50929C14.3819 6.70137 14.3923 6.9402 14.4632 7.1526C14.4986 7.25931 14.5475 7.38635 14.633 7.44732C15.0329 7.73087 15.4506 7.99002 15.8558 8.26543C16.4006 8.63638 16.4027 9.11098 15.8277 9.43314C14.4288 10.2157 13.0205 10.9809 11.607 11.7381C11.1122 12.0033 10.6528 11.7249 10.6372 11.1649C10.6216 10.6069 10.6341 10.048 10.6341 9.43009C10.131 9.43314 9.9987 9.02968 9.80183 8.69227C9.48725 8.15161 9.17268 7.61094 8.86748 7.06418C8.63415 6.64548 8.72165 6.34669 9.14143 6.10481C9.46434 5.91883 9.79349 5.74505 10.1435 5.55297C9.91537 5.15662 9.70183 4.78669 9.45809 4.36392C4.17073 8.11401 1.42496 13.1151 1.22288 19.5126H1.68433C3.72803 19.5126 5.77277 19.5126 7.81646 19.5126C7.93313 19.5126 8.05187 19.5055 8.1675 19.5177C8.51124 19.5543 8.74873 19.8094 8.74561 20.1275C8.74248 20.4446 8.5029 20.7068 8.15604 20.724C7.74042 20.7444 7.32273 20.7322 6.90607 20.7322C5.17487 20.7322 3.44262 20.7322 1.71141 20.7322H1.2708V21.9517H1.67496C4.35718 21.9517 7.0394 21.9517 9.72162 21.9517C9.85183 21.9517 9.9862 21.9385 10.1112 21.967C10.4258 22.0371 10.6153 22.2383 10.6174 22.5574C10.6195 22.8776 10.431 23.0788 10.1185 23.154C9.99453 23.1835 9.85912 23.1702 9.72995 23.1702C7.06127 23.1702 4.39155 23.1702 1.72287 23.1702H1.27601V31.707H1.70725C4.1676 31.707 6.62899 31.707 9.08935 31.707C9.20601 31.707 9.3258 31.6958 9.44038 31.7141C9.77891 31.769 9.97578 31.9672 9.99557 32.3036C10.0143 32.6176 9.76745 32.8798 9.42684 32.9194C9.31122 32.9327 9.19247 32.9255 9.0758 32.9255C6.62795 32.9255 4.1801 32.9255 1.73225 32.9255H1.27913V34.1451H1.69683C3.74053 34.1451 5.78527 34.1451 7.82896 34.1451C7.95917 34.1451 8.09146 34.137 8.21854 34.1563C8.53519 34.205 8.76331 34.4703 8.74456 34.7701C8.72477 35.0892 8.53936 35.2864 8.22374 35.3504C8.09875 35.3758 7.96438 35.3636 7.83417 35.3636C5.66027 35.3636 3.48637 35.3636 1.24997 35.3636C1.24997 35.5476 1.24997 35.7183 1.24997 35.89C1.24997 36.639 1.2333 37.3891 1.25726 38.1381C1.26976 38.511 1.17601 38.8058 0.859353 39.0222H0C0 32.1115 0 25.2008 0 18.2901C0.0239577 18.1671 0.0499987 18.0441 0.0697898 17.9211C0.224994 16.9577 0.316658 15.979 0.542694 15.0318C2.35619 7.42293 8.71227 1.59353 16.5923 0.291673C17.3079 0.173784 18.0308 0.0965469 18.7495 0C19.5828 0 20.4161 0 21.2494 0C21.3494 0.0213419 21.4494 0.046749 21.5505 0.0630096C22.8036 0.27338 24.0983 0.351634 25.3045 0.713431C33.2043 3.08544 38.0157 8.24104 39.6917 16.1498C39.8406 16.8551 39.899 17.5776 40 18.2931V39.0253H39.1406H39.1396ZM12.3945 5.72269C11.6601 6.12412 10.9518 6.51133 10.2164 6.91377C10.4237 7.27456 10.6174 7.61095 10.8268 7.97477C11.5643 7.57131 12.2705 7.18512 13.0049 6.78267C12.7924 6.41275 12.5986 6.07534 12.3955 5.72167L12.3945 5.72269ZM29.8305 6.91377C29.0826 6.50523 28.3753 6.11904 27.6503 5.72269C27.4378 6.09059 27.2493 6.41884 27.0399 6.78166C27.767 7.18004 28.4743 7.56725 29.2149 7.97173C29.4211 7.61806 29.6107 7.29183 29.8315 6.91377H29.8305ZM14.4319 8.7939C14.058 8.54593 13.733 8.31523 13.3924 8.11197C13.2028 7.99917 11.8997 8.70955 11.8903 8.93008C11.8736 9.32643 11.8861 9.7238 11.8861 10.1872C12.3205 9.95246 12.682 9.75937 13.0413 9.56221C13.4903 9.31627 13.9382 9.06728 14.433 8.79288L14.4319 8.7939ZM28.1482 10.1588C28.1482 9.7238 28.1566 9.34574 28.1451 8.96667C28.1378 8.73902 26.8847 7.98189 26.6806 8.09774C26.3212 8.301 25.9868 8.54491 25.6056 8.79593C26.4264 9.2431 27.1847 9.65571 27.942 10.0683C27.9847 10.0917 28.0316 10.108 28.1472 10.1578L28.1482 10.1588Z" fill="white"/>
<path d="M11.6405 39.0248C11.3811 38.8022 11.1363 38.5715 11.303 38.1874C11.4332 37.8876 11.6863 37.8022 11.9988 37.8032C13.379 37.8073 14.7591 37.7991 16.1383 37.8103C16.3976 37.8123 16.5549 37.7432 16.7049 37.5237C17.3591 36.5623 18.1632 35.7676 19.3559 35.4322V32.7807C19.2934 32.8102 19.2465 32.8224 19.2111 32.8498C17.6674 34.0765 15.8508 34.5856 13.9113 34.7462C13.304 34.797 12.6894 34.7625 12.078 34.7676C11.7644 34.7696 11.478 34.7188 11.3186 34.4108C11.1551 34.0948 11.3186 33.8549 11.5061 33.6131C12.6123 32.1842 13.9529 31.0215 15.58 30.1821C15.6362 30.1526 15.6904 30.1191 15.7987 30.0571C15.2508 29.8894 14.7508 29.742 14.254 29.5835C11.4092 28.6739 8.87597 27.2339 6.62082 25.3192C6.36458 25.1017 6.13958 24.873 6.30312 24.5031C6.46249 24.1433 6.77082 24.1149 7.11872 24.1444C9.72595 24.3659 12.3269 24.6413 14.8196 25.4706C15.4498 25.68 16.0414 26.0214 16.6174 26.3568C16.9362 26.5428 16.9528 26.9259 16.7466 27.1952C16.5487 27.4544 16.1966 27.5377 15.9133 27.3335C15.0185 26.6871 13.9738 26.4188 12.9175 26.2044C11.6342 25.9422 10.3384 25.7389 9.0468 25.5092C9.03326 25.5417 9.02076 25.5743 9.00722 25.6068C9.21242 25.7511 9.41346 25.9025 9.62491 26.0387C12.1957 27.7115 15.0216 28.7502 18.0601 29.2563C18.5257 29.3335 18.7372 29.5154 18.7403 29.8538C18.7445 30.2573 18.4809 30.4169 18.1153 30.5124C16.1893 31.0185 14.5946 32.048 13.2623 33.5572C13.6488 33.5257 14.0373 33.5114 14.4217 33.4596C16.1227 33.2299 17.6778 32.6791 18.9038 31.4453C19.1205 31.2279 19.2944 30.9707 19.4986 30.74C19.7986 30.4016 20.2434 30.3925 20.4996 30.7522C21.6329 32.3427 23.285 33.0561 25.1589 33.3905C25.6734 33.483 26.1984 33.5175 26.7328 33.5328C26.0203 32.6832 25.2016 31.9789 24.2297 31.487C23.462 31.0978 22.6412 30.8041 21.8288 30.5063C21.4861 30.3803 21.234 30.2248 21.2569 29.8457C21.2788 29.4676 21.5381 29.3162 21.9027 29.2573C25.0787 28.7441 28.013 27.6353 30.666 25.8405C30.7702 25.7704 30.8702 25.6932 30.9441 25.5285C29.8296 25.7135 28.7098 25.8741 27.6026 26.0926C26.8661 26.2379 26.1359 26.4351 25.4235 26.6688C24.987 26.8121 24.5797 27.054 24.1787 27.2837C23.8027 27.4981 23.4798 27.4828 23.2454 27.1841C23.0246 26.9025 23.0485 26.5601 23.4058 26.3243C23.8318 26.0428 24.2933 25.7887 24.7745 25.617C26.8026 24.8934 28.9254 24.5793 31.0556 24.3192C31.6754 24.244 32.2993 24.2063 32.9201 24.1433C33.2597 24.1088 33.5462 24.1687 33.6951 24.5072C33.8493 24.8568 33.6545 25.0844 33.4055 25.2968C30.8775 27.4503 28.0057 28.988 24.7756 29.8813C24.6016 29.929 24.4287 29.9819 24.2672 30.0286C24.9526 30.49 25.6859 30.8854 26.2953 31.4159C27.0963 32.114 27.8151 32.9057 28.5307 33.6903C28.6713 33.8448 28.715 34.1608 28.6734 34.3793C28.6171 34.671 28.3255 34.7462 28.0296 34.7665C25.5443 34.9332 23.2131 34.4942 21.1246 33.0998C20.9767 33.0013 20.8361 32.8915 20.6538 32.7594V35.4312C21.8788 35.7767 22.6954 36.6396 23.3975 37.6447C23.4641 37.7402 23.6537 37.7991 23.786 37.8002C25.1526 37.8113 26.5203 37.8113 27.8869 37.8042C28.2536 37.8022 28.5692 37.8621 28.689 38.2544C28.8046 38.6335 28.5744 38.8479 28.2807 39.0268H11.6405V39.0248ZM21.934 37.788C20.6788 36.2026 18.884 36.2249 18.1268 37.788H21.934Z" fill="white"/>
<path d="M9.14047 39.0257C8.89777 38.8591 8.66444 38.6426 8.77382 38.3469C8.84986 38.1416 9.06443 37.8906 9.25922 37.8489C9.45192 37.8082 9.78941 37.9485 9.89566 38.1131C10.0009 38.2767 9.91441 38.5715 9.87899 38.8032C9.86649 38.8845 9.754 38.9516 9.68733 39.0247H9.14047V39.0257Z" fill="white"/>
<path d="M30.3117 39.0246C30.2127 38.8975 30.0742 38.7827 30.0231 38.6394C29.9158 38.3355 29.9971 38.0601 30.2981 37.8924C30.596 37.7268 30.8793 37.7847 31.096 38.0367C31.3137 38.2908 31.3043 38.5683 31.0898 38.8274C31.0262 38.9036 30.9366 38.9595 30.8596 39.0246H30.3127H30.3117Z" fill="white"/>
<path d="M11.0138 16.7281C11.2794 17.8683 11.6856 18.9669 12.2554 19.9924C12.8804 21.1174 13.5877 22.1987 14.2439 23.3075C14.3481 23.4833 14.4658 23.7343 14.4106 23.8959C14.3439 24.088 14.1095 24.3299 13.9252 24.3502C13.72 24.3725 13.3929 24.2262 13.2856 24.0534C12.4794 22.7668 11.6554 21.4853 10.9513 20.1458C10.1711 18.66 9.68465 17.0655 9.50965 15.3916C9.4784 15.0888 9.51069 14.8296 9.79298 14.6599C10.0784 14.4892 10.3388 14.5817 10.5898 14.7544C12.1721 15.8388 13.5054 17.1813 14.6668 18.6692C15.7053 19.9995 16.6272 21.4162 17.6001 22.7953C17.673 22.8989 17.7376 23.0087 17.8511 23.1865C17.8678 23.027 17.8855 22.9396 17.8834 22.8522C17.7907 19.218 18.3011 15.664 19.3573 12.1792C19.4615 11.8357 19.6188 11.5897 20.0094 11.5938C20.3792 11.5979 20.5375 11.8316 20.6375 12.1599C21.6916 15.6315 22.1979 19.1732 22.1177 22.7943C22.1156 22.8949 22.1177 22.9955 22.1781 23.1306C22.2552 23.0128 22.3354 22.8969 22.4083 22.777C23.927 20.2729 25.6894 17.9527 27.8852 15.9699C28.3706 15.5319 28.9081 15.1467 29.4279 14.7453C29.6695 14.5583 29.9425 14.4882 30.2227 14.6681C30.482 14.8347 30.5237 15.0817 30.4935 15.3703C30.2435 17.7006 29.3477 19.8115 28.1779 21.8237C27.7415 22.5737 27.2467 23.2912 26.7655 24.0148C26.5071 24.403 26.1634 24.4935 25.8415 24.2953C25.5061 24.088 25.4572 23.7292 25.7342 23.3319C26.9634 21.5747 28.0383 19.7403 28.7112 17.7037C28.8175 17.3805 28.9039 17.0512 28.9279 16.6772C28.8081 16.7829 28.6842 16.8846 28.5675 16.9943C25.8374 19.5493 23.7916 22.5778 22.1208 25.8655C22.0281 26.0474 21.9395 26.2313 21.85 26.4143C21.6979 26.7252 21.4593 26.8909 21.0979 26.8076C20.7614 26.7303 20.6062 26.4691 20.6333 26.0728C20.7125 24.9335 20.8281 23.7943 20.8614 22.654C20.9354 20.0666 20.6604 17.5076 20.0865 14.979C20.074 14.9221 20.0531 14.8662 19.9615 14.8022C19.8979 15.0756 19.8271 15.3469 19.7729 15.6213C19.0834 19.0625 18.9365 22.5239 19.3604 26.0067C19.4136 26.4386 19.2688 26.6937 18.9302 26.7994C18.5927 26.9041 18.323 26.7567 18.1157 26.335C16.7897 23.6327 15.2043 21.0899 13.1939 18.8155C12.5346 18.0696 11.8158 17.3724 11.1242 16.6539C11.0877 16.6793 11.0513 16.7047 11.0148 16.7301L11.0138 16.7281Z" fill="white"/>
<path d="M23.7467 10.9918C23.7373 11.318 23.4509 11.5853 23.1165 11.5812C22.7801 11.5772 22.503 11.3048 22.502 10.9765C22.502 10.634 22.8009 10.3525 23.1509 10.3678C23.4863 10.382 23.7561 10.6645 23.7467 10.9918Z" fill="white"/>
<path d="M12.4853 13.8677C12.153 13.8595 11.8739 13.578 11.877 13.2538C11.8801 12.9103 12.1801 12.6349 12.5332 12.6532C12.8697 12.6705 13.1353 12.954 13.1217 13.2813C13.1082 13.6055 12.8155 13.8748 12.4853 13.8666V13.8677Z" fill="white"/>
<path d="M15.3237 12.1074C15.3279 12.4469 15.0612 12.7192 14.7185 12.7243C14.3873 12.7294 14.0894 12.4489 14.0831 12.1247C14.0769 11.8015 14.3644 11.5149 14.6998 11.5098C15.0445 11.5048 15.3185 11.767 15.3237 12.1074Z" fill="white"/>
<path d="M25.9474 12.1329C25.9391 12.4703 25.6568 12.7346 25.3162 12.7244C24.9828 12.7142 24.6964 12.4216 24.7079 12.1004C24.7183 11.7732 25.0131 11.5018 25.3505 11.511C25.6932 11.5191 25.9568 11.7935 25.9484 12.1329H25.9474Z" fill="white"/>
<path d="M17.5386 11.0032C17.522 11.3345 17.2272 11.5957 16.8897 11.5794C16.548 11.5631 16.2897 11.2827 16.3043 10.9452C16.3189 10.6109 16.6095 10.3507 16.948 10.368C17.2855 10.3853 17.5543 10.6739 17.5376 11.0032H17.5386Z" fill="white"/>
<path d="M28.1631 13.249C28.1694 13.5772 27.8892 13.8618 27.5527 13.8679C27.2152 13.874 26.934 13.6037 26.9288 13.2683C26.9236 12.9299 27.1913 12.6585 27.534 12.6524C27.8736 12.6473 28.1579 12.9166 28.1631 13.249Z" fill="white"/>
</svg>
