<svg width="40" height="40" viewBox="0 0 40 40" fill="none" xmlns="http://www.w3.org/2000/svg">
<path d="M33.7719 8.20798L27.3109 15.3293C26.9179 13.6351 25.5684 12.3081 23.8613 11.9442L31.0696 5.48957C31.4368 5.16426 31.8942 5 32.3483 5C32.8411 5 33.3339 5.19003 33.7075 5.56365C34.429 6.28513 34.458 7.45108 33.7719 8.20798V8.20798Z" stroke="white" stroke-width="2" stroke-miterlimit="10" stroke-linecap="round" stroke-linejoin="round"/>
<path d="M27.3115 15.3295L22.3288 20.8275L10.7176 33.6272C10.2055 34.1909 9.40992 34.4002 8.68845 34.1586L6.94918 33.5789C6.35976 33.3824 5.9024 32.9154 5.72203 32.3228L5.0843 30.255C4.86528 29.5367 5.08108 28.7605 5.63829 28.2612L18.4348 16.8046L23.8619 11.9443C25.569 12.3083 26.9185 13.6353 27.3115 15.3295V15.3295Z" stroke="white" stroke-width="2" stroke-miterlimit="10" stroke-linecap="round" stroke-linejoin="round"/>
<path d="M12.525 8.50753C10.8501 8.75553 9.52633 10.0793 9.2751 11.7574C9.26866 11.8057 9.1978 11.8057 9.19136 11.7574C8.94336 10.0825 7.61958 8.75875 5.94151 8.50753C5.8932 8.50108 5.8932 8.43023 5.94151 8.42378C7.61636 8.17578 8.94013 6.852 9.19136 5.17393C9.1978 5.12562 9.26866 5.12562 9.2751 5.17393C9.52311 6.84878 10.8469 8.17256 12.525 8.42378C12.5733 8.43023 12.5733 8.50108 12.525 8.50753Z" fill="white"/>
<path d="M34.9537 25.9133C32.844 26.2257 31.1788 27.8909 30.8664 30.0006C30.8568 30.0618 30.7698 30.0618 30.7601 30.0006C30.4477 27.8909 28.7825 26.2257 26.6729 25.9133C26.6117 25.9036 26.6117 25.8167 26.6729 25.807C28.7825 25.4946 30.4477 23.8294 30.7601 21.7197C30.7698 21.6585 30.8568 21.6585 30.8664 21.7197C31.1788 23.8294 32.844 25.4946 34.9537 25.807C35.0149 25.8167 35.0149 25.9036 34.9537 25.9133Z" fill="white"/>
<path d="M20.1672 6.8747C19.3555 6.99388 18.7146 7.63483 18.5954 8.44649C18.5922 8.46903 18.5568 8.46903 18.5535 8.44649C18.4344 7.63483 17.7934 6.99388 16.9818 6.8747C16.9592 6.87148 16.9592 6.83605 16.9818 6.83283C17.7934 6.71366 18.4344 6.07271 18.5535 5.26105C18.5568 5.2385 18.5922 5.2385 18.5954 5.26105C18.7146 6.07271 19.3555 6.71366 20.1672 6.83283C20.1897 6.83605 20.1897 6.87148 20.1672 6.8747Z" fill="white"/>
</svg>
