<svg width="40" height="34" viewBox="0 0 40 34" fill="none" xmlns="http://www.w3.org/2000/svg">
<path d="M3.25393 20.4836C2.42731 20.4836 1.62259 20.4857 0.817867 20.4836C0.299998 20.4815 0.00109786 20.2454 2.99738e-06 19.8459C-0.00109186 19.4464 0.297805 19.2071 0.814579 19.205C1.61821 19.2018 2.42183 19.205 3.24955 19.205V17.9252C2.84335 17.9252 2.4514 17.9306 2.05835 17.9242C1.60398 17.9167 1.31822 17.6721 1.31055 17.2982C1.30289 16.9083 1.59631 16.6498 2.07257 16.6477C3.09736 16.6423 4.12106 16.6423 5.14585 16.6477C5.60021 16.6498 5.88488 16.8987 5.89254 17.2736C5.9002 17.6614 5.60459 17.9146 5.12833 17.9252C4.9652 17.9285 4.80315 17.9252 4.61265 17.9252V19.206C5.00789 19.206 5.39876 19.2018 5.79072 19.2071C6.26479 19.2146 6.5604 19.4752 6.54836 19.864C6.53632 20.2379 6.25056 20.4772 5.79401 20.4847C5.4119 20.4911 5.02979 20.4857 4.64659 20.4857C4.69695 20.9269 4.93782 21.1224 5.44912 21.1245C7.07499 21.1288 8.69976 21.1267 10.3256 21.1267C10.9398 21.1267 11.5552 21.1288 12.1694 21.1267C12.8132 21.1235 13.1055 20.8479 13.1077 20.2315C13.1121 18.6986 13.111 17.1647 13.1077 15.6318C13.1066 15.0122 12.8153 14.7345 12.1781 14.7281C11.8519 14.7249 11.5256 14.7281 11.1424 14.7281C11.1424 15.3156 11.1435 15.8839 11.1424 16.4511C11.1402 17.0803 10.9278 17.2897 10.284 17.2907C9.30084 17.2929 8.31656 17.2939 7.33338 17.2907C6.79361 17.2886 6.55931 17.0611 6.55384 16.5366C6.54837 15.9523 6.55274 15.368 6.55274 14.7399C6.10604 14.7399 5.68343 14.7025 5.27285 14.7559C5.06921 14.7826 4.86337 14.9503 4.70352 15.0988C4.39149 15.3915 4.05099 15.4566 3.75756 15.2323C3.45648 15.0026 3.42692 14.6181 3.69407 14.273C4.09697 13.7518 4.64002 13.458 5.30679 13.4548C7.6695 13.443 10.0333 13.427 12.396 13.4698C12.869 13.4783 13.3376 13.7411 13.8511 13.8992C14.6459 11.8087 15.7769 9.86455 18.4035 9.0901C18.2404 8.98755 18.1386 8.94269 18.0619 8.87325C16.3868 7.33183 15.9182 5.00954 16.874 3.01092C17.8232 1.02726 19.967 -0.1937 22.1195 0.0252827C24.4362 0.260289 26.2832 1.86687 26.7671 4.08127C26.8328 4.3793 26.8482 4.68801 26.8766 4.99245C26.9073 5.33001 26.7814 5.58103 26.4595 5.74767C26.3741 5.79147 26.2777 5.95811 26.3007 6.03716C26.4201 6.45483 26.4803 6.93445 26.7376 7.26026C27.2817 7.95139 27.0277 8.66388 26.4748 9.17662C26.3182 9.3219 26.1814 9.51418 26.108 9.71179C25.7785 10.5941 25.1632 11.1208 24.1198 11.25C24.6672 11.955 25.0832 12.6921 25.8124 13.1739C26.3215 13.5103 26.916 13.5242 27.4766 13.4334C28.5901 13.2529 29.57 13.3928 30.3419 14.3243C30.7809 13.286 31.4915 12.5949 32.56 12.3011C32.8327 12.2264 33.1228 12.1858 33.4053 12.1783C33.8115 12.1687 34.0841 12.4218 34.0863 12.8203C34.0961 14.5134 34.0961 16.2065 34.0863 17.8996C34.0841 18.3354 33.7972 18.5918 33.3429 18.5598C32.9794 18.5331 32.6214 18.4444 32.2305 18.3782C32.2491 18.4465 32.2622 18.5288 32.2951 18.6036C32.998 20.2069 33.7086 21.806 34.4016 23.4137C34.498 23.638 34.625 23.6914 34.856 23.6978C37.5515 23.7673 39.7226 25.7445 39.9766 28.3478C40.2263 30.9083 38.4515 33.254 35.8381 33.8191C32.9816 34.4365 30.1327 32.5693 29.5886 29.7236C29.5744 29.6467 29.5601 29.5709 29.5437 29.4736H19.6396C19.056 32.5426 16.5324 33.9388 14.3503 33.8886C11.7271 33.8277 9.75849 32.1356 9.20997 29.4512C8.6286 29.4512 8.0319 29.4523 7.4363 29.4512C6.76405 29.4491 6.54508 29.2397 6.55493 28.5945C6.58011 26.7946 6.99507 25.0833 7.83264 23.4789C8.02095 23.1178 8.28919 22.7952 8.55086 22.4117C7.63666 22.4117 6.74325 22.4139 5.84984 22.4107C5.56408 22.4096 5.26957 22.4288 4.99257 22.3733C3.97435 22.1682 3.42801 21.5198 3.25174 20.4922L3.25393 20.4836ZM20.314 28.1501C19.7294 27.3629 19.6308 26.5307 19.6637 25.6634C19.6812 25.1976 19.6703 24.7308 19.6659 24.2651C19.6549 23.184 18.859 22.4075 17.7466 22.4053C15.7408 22.401 13.735 22.3925 11.7292 22.4085C10.4877 22.4181 9.55047 22.9736 9.00852 24.0685C8.70195 24.6881 8.43371 25.3354 8.24211 25.9966C8.04175 26.6878 7.95526 27.4109 7.81293 28.1501H20.3129H20.314ZM25.819 14.5572C24.9114 14.2741 24.2599 13.6033 23.6873 12.8406C23.4048 12.4646 23.1333 12.0811 22.8388 11.7136C22.3395 11.0909 21.7286 10.6187 20.9315 10.4029C19.0823 9.8998 17.3853 10.5215 16.2215 12.142C15.4748 13.1824 15.0412 14.3564 14.7423 15.5805C14.5573 16.339 14.3613 17.0995 14.4412 17.9231C16.2269 17.9231 17.9853 17.9252 19.7436 17.9156C19.8203 17.9156 19.9451 17.8195 19.9648 17.7469C20.198 16.8966 20.6326 16.152 21.1976 15.4951C20.9304 15.1169 20.6644 14.7623 20.4235 14.3916C20.1881 14.0274 20.2724 13.6471 20.6042 13.4516C20.9381 13.254 21.2917 13.3629 21.5381 13.7411C21.5896 13.8191 21.6344 13.9024 21.6859 13.9804C22.4983 15.2035 23.6205 16.0228 25.0504 16.4394C25.1599 16.4714 25.277 16.4778 25.3285 16.4864C25.4949 15.8316 25.6504 15.2184 25.8179 14.5583L25.819 14.5572ZM27.0748 18.0492C27.6376 20.4067 28.2266 22.8379 28.7915 25.2745C28.8748 25.6313 28.9207 26.0265 28.8529 26.379C28.7368 26.9805 28.5167 27.5626 28.3372 28.1619C28.9021 28.1619 29.5273 28.1501 30.1525 28.1672C30.4021 28.1747 30.5444 28.0839 30.6835 27.8906C31.4893 26.7679 32.2995 25.6473 33.1294 24.5428C33.3024 24.3131 33.298 24.1369 33.1896 23.8944C32.2524 21.7847 31.3272 19.6696 30.3966 17.5567C30.3495 17.4488 30.2926 17.3463 30.2816 17.3238C29.1988 17.5685 28.1609 17.8035 27.0737 18.0481L27.0748 18.0492ZM25.4774 4.48292C25.3077 2.68833 23.4432 1.21206 21.4987 1.28684C19.4491 1.36482 17.7313 3.08036 17.7006 5.08004C17.6721 6.94834 19.2082 8.74614 20.9786 8.87112C20.9786 8.29962 20.9742 7.73027 20.9786 7.16198C20.9939 5.62804 22.1556 4.49787 23.7311 4.48398C24.3026 4.47864 24.8752 4.48398 25.4763 4.48398L25.4774 4.48292ZM23.5866 25.5854C23.5866 24.3676 23.592 23.1851 23.5822 22.0015C23.5811 21.805 23.5275 21.6052 23.476 21.413C23.118 20.0766 21.8874 19.2146 20.2932 19.205C18.4243 19.1932 16.5554 19.2018 14.6854 19.2028C14.6076 19.2028 14.5299 19.2146 14.4478 19.221C14.4193 19.863 14.3908 20.4793 14.3624 21.1224C15.4802 21.1224 16.6244 21.1181 17.7696 21.1224C19.5991 21.1299 20.9666 22.4694 20.9775 24.2619C20.9808 24.6966 20.9775 25.1325 20.9775 25.5832H23.5866V25.5854ZM26.8285 27.6342C27.4197 27.2689 27.6934 26.4218 27.5029 25.5843C27.3814 25.0523 27.2511 24.5214 27.1252 23.9905C26.6686 22.0592 26.2164 20.1279 25.75 18.1987C25.7183 18.0695 25.6033 17.8772 25.5015 17.859C24.2676 17.6432 23.1629 17.1561 22.1019 16.3518C21.8009 16.8987 21.5129 17.4221 21.2129 17.9658C21.3717 18.0267 21.4199 18.0524 21.4713 18.0641C23.6238 18.564 24.9135 20.1631 24.9114 22.3295C24.9114 23.3421 24.9125 24.3537 24.9103 25.3664C24.9103 25.5437 24.8993 25.6879 25.1369 25.7616C26.0642 26.049 26.5974 26.6963 26.8285 27.6353V27.6342ZM30.9002 29.4427C30.9112 29.5506 30.9112 29.6296 30.9287 29.7033C31.3853 31.5994 33.3549 32.9133 35.2742 32.6035C37.4125 32.2595 38.8796 30.4596 38.6661 28.4418C38.4537 26.4325 36.6964 24.9039 34.6622 24.9669C34.5516 24.9701 34.3994 25.0032 34.3425 25.078C33.9472 25.5918 33.5717 26.1205 33.1907 26.645C33.298 26.6632 33.3549 26.6333 33.4108 26.6034C33.4699 26.5713 33.5279 26.5339 33.5892 26.5062C34.5702 26.0714 35.5129 26.1408 36.3625 26.7892C37.1979 27.4259 37.522 28.2901 37.3139 29.3081C37.0818 30.4404 36.1446 31.2447 34.9895 31.3516C33.8531 31.4573 32.7779 30.8068 32.3126 29.7514C32.259 29.6296 32.1287 29.4672 32.0192 29.4566C31.6557 29.4192 31.2867 29.4427 30.9002 29.4427ZM10.5829 29.4427C10.7428 31.2554 12.6358 32.7295 14.6372 32.6355C16.4459 32.5501 18.2404 30.9713 18.236 29.4416C17.8824 29.4416 17.5276 29.4266 17.1762 29.4512C17.0743 29.4587 16.9298 29.557 16.8904 29.6478C16.4306 30.717 15.6072 31.3152 14.4292 31.3195C13.2511 31.3238 12.4234 30.7299 11.9592 29.6627C11.9197 29.573 11.8081 29.4576 11.7238 29.4523C11.346 29.4299 10.9661 29.4427 10.584 29.4427H10.5829ZM24.7811 5.76263C24.5522 5.76263 24.2271 5.76263 23.903 5.76263C23.7672 5.76263 23.6293 5.75729 23.4946 5.77331C22.8366 5.85556 22.3143 6.38646 22.2957 7.04021C22.2738 7.81038 22.2837 8.5827 22.2957 9.35395C22.2968 9.45008 22.3691 9.60711 22.4414 9.62848C22.8563 9.74918 23.2767 9.88271 23.7048 9.92757C24.4789 10.0098 24.7887 9.71927 24.9245 8.96939C24.9617 8.76109 25.1391 8.56668 25.2836 8.39149C25.38 8.27399 25.5321 8.19814 25.5825 8.16183C25.3088 7.34037 25.0548 6.58088 24.7822 5.76263H24.7811ZM25.5289 28.1619C25.5562 27.4184 25.0614 26.8993 24.3585 26.8854C23.6369 26.8704 22.9143 26.8822 22.1917 26.8811C21.8468 26.8811 21.5009 26.8811 21.098 26.8811C21.3804 27.5231 21.7943 27.9205 22.4107 28.0732C22.7085 28.1469 23.0293 28.1523 23.3402 28.1576C24.0705 28.1694 24.8019 28.1608 25.5289 28.1608V28.1619ZM29.7211 15.9971C29.5941 15.6938 29.5174 15.4342 29.3828 15.2067C29.051 14.6459 28.2945 14.4632 27.654 14.7644C27.0354 15.056 26.546 15.9726 26.7442 16.4896C26.7693 16.5547 26.8733 16.6316 26.9423 16.6338C27.9113 16.6573 28.8233 16.4394 29.7211 15.9961V15.9971ZM32.7681 13.5979C31.9141 13.8703 31.3951 14.6747 31.475 15.5431C31.5451 16.2984 32.1232 16.997 32.7681 17.0963V13.599V13.5979ZM33.679 29.4416C33.9735 29.9511 34.5133 30.1755 35.0476 30.0462C35.6497 29.9009 36.0592 29.3967 36.0592 28.8007C36.0592 28.2046 35.6497 27.7015 35.0465 27.5573C34.5089 27.428 33.9713 27.6524 33.679 28.1619C34.0239 28.1619 34.3447 28.1565 34.6655 28.163C35.1133 28.1726 35.3979 28.4257 35.3979 28.8017C35.3979 29.1756 35.1122 29.4299 34.6644 29.4405C34.3436 29.448 34.0239 29.4416 33.6779 29.4416H33.679ZM9.81543 14.7537H7.88628V15.9768H9.81543V14.7537ZM15.5054 29.4694H13.3584C13.8708 30.2566 14.9043 30.2641 15.5054 29.4694Z" fill="white"/>
</svg>
