<svg width="40" height="40" viewBox="0 0 40 40" fill="none" xmlns="http://www.w3.org/2000/svg">
<path d="M0 20C0 8.9543 8.9543 0 20 0C31.0457 0 40 8.9543 40 20C40 31.0457 31.0457 40 20 40C8.9543 40 0 31.0457 0 20Z" fill="#5865F2"/>
<g clip-path="url(#clip0_229_4609)">
<path fill-rule="evenodd" clip-rule="evenodd" d="M31.3021 11.875C27.6042 9.09299 24.0876 9.16669 24.0876 9.16669L23.7251 9.59044C27.8218 10.8433 29.852 12.6304 30.1057 12.8515C27.423 11.396 24.8308 10.6775 22.3837 10.3827C20.5347 10.18 18.7583 10.2353 17.1994 10.4379C17.0725 10.4379 16.9456 10.4564 16.8187 10.4748C16.8006 10.4748 16.7825 10.4932 16.7644 10.4932C15.858 10.5669 13.6828 10.8985 10.9275 12.1145C10.0937 12.5014 9.56798 12.7962 9.44109 12.8515C9.69486 12.612 11.8338 10.7327 16.1662 9.4799L15.9124 9.16669C15.9124 9.16669 12.3958 9.09299 8.69789 11.875C8.69789 11.875 5 18.6182 5 26.9275C5 26.9275 7.1571 30.6675 12.8308 30.8334C12.8308 30.8334 13.7915 29.6726 14.5529 28.6962C11.4894 27.775 10.2205 25.9141 10.0755 25.6746C10.1662 25.7299 10.4018 25.8957 10.7825 26.0984C10.8006 26.1168 10.8369 26.1536 10.8731 26.1721C10.9275 26.1905 10.9637 26.2089 11 26.2458C11.0363 26.2642 11.0725 26.2826 11.1088 26.301C11.7613 26.6695 12.3958 26.9459 12.994 27.1854C14.0453 27.5907 15.2961 27.9961 16.7644 28.2908C18.6858 28.6409 20.9517 28.7699 23.4169 28.3093C24.6314 28.1066 25.864 27.7381 27.1329 27.2038C28.0393 26.8722 29.0181 26.3747 30.0695 25.693C29.9245 25.9326 28.6012 27.8487 25.4471 28.7514C26.2085 29.7279 27.1329 30.8334 27.1329 30.8334C32.8248 30.6675 35 26.9275 35 26.9275C35 18.6182 31.3021 11.875 31.3021 11.875ZM15.9124 25.1588C14.4985 25.1588 13.3202 23.8322 13.3202 22.2109C13.3202 20.5896 14.4622 19.2631 15.9124 19.2631C17.3625 19.2631 18.5408 20.5896 18.5227 22.2109C18.5227 23.8322 17.3807 25.1588 15.9124 25.1588ZM25.2296 25.1588C23.7976 25.1588 22.6193 23.8322 22.6193 22.2109C22.6193 20.5896 23.7613 19.2631 25.2296 19.2631C26.6979 19.2631 27.8218 20.5896 27.8218 22.2109C27.8218 23.8322 26.6798 25.1588 25.2296 25.1588Z" fill="white"/>
</g>
<defs>
<clipPath id="clip0_229_4609">
<rect width="30" height="21.6667" fill="white" transform="translate(5 9.1665)"/>
</clipPath>
</defs>
</svg>
