<svg width="40" height="40" viewBox="0 0 40 40" fill="none" xmlns="http://www.w3.org/2000/svg">
<g clip-path="url(#clip0_229_4596)">
<path d="M40 20C40 8.95312 31.0469 0 20 0C8.95312 0 0 8.95312 0 20C0 29.9844 7.3125 38.2578 16.875 39.7578V25.7812H11.7969V20H16.875V15.5937C16.875 10.582 19.8594 7.8125 24.4297 7.8125C26.6172 7.8125 28.9062 8.20312 28.9062 8.20312V13.125H26.3828C23.8984 13.125 23.125 14.668 23.125 16.25V20H28.6719L27.7852 25.7812H23.125V39.7578C32.6875 38.2578 40 29.9844 40 20Z" fill="#1877F2"/>
<path d="M27.7852 25.7822L28.6719 20.001H23.125V16.251C23.125 14.6689 23.8984 13.126 26.3828 13.126H28.9062V8.2041C28.9062 8.2041 26.6172 7.81348 24.4297 7.81348C19.8594 7.81348 16.875 10.583 16.875 15.5947V20.001H11.7969V25.7822H16.875V39.7588C17.8945 39.9189 18.9375 40.001 20 40.001C21.0625 40.001 22.1055 39.9189 23.125 39.7588V25.7822H27.7852Z" fill="white"/>
</g>
<defs>
<clipPath id="clip0_229_4596">
<rect width="40" height="40" fill="white"/>
</clipPath>
</defs>
</svg>
