<svg width="32" height="35" viewBox="0 0 32 35" fill="none" xmlns="http://www.w3.org/2000/svg">
<path d="M5.94497 33.3069C8.676 33.3069 10.8899 31.093 10.8899 28.362C10.8899 25.6309 8.676 23.417 5.94497 23.417C3.21394 23.417 1 25.6309 1 28.362C1 31.093 3.21394 33.3069 5.94497 33.3069Z" stroke="white" stroke-width="2" stroke-miterlimit="10" stroke-linecap="round" stroke-linejoin="round"/>
<path d="M26.0539 29.3509C28.7849 29.3509 30.9988 27.1369 30.9988 24.4059C30.9988 21.6749 28.7849 19.4609 26.0539 19.4609C23.3228 19.4609 21.1089 21.6749 21.1089 24.4059C21.1089 27.1369 23.3228 29.3509 26.0539 29.3509Z" stroke="white" stroke-width="2" stroke-miterlimit="10" stroke-linecap="round" stroke-linejoin="round"/>
<path d="M10.8906 28.3622V8.46031L30.6705 1L31.0002 24.4062" stroke="white" stroke-width="2" stroke-miterlimit="10" stroke-linecap="round" stroke-linejoin="round"/>
<path d="M10.8906 17.4832L30.8024 10.3525" stroke="white" stroke-width="2" stroke-miterlimit="10" stroke-linecap="round" stroke-linejoin="round"/>
</svg>
