<svg width="40" height="45" viewBox="0 0 40 45" fill="none" xmlns="http://www.w3.org/2000/svg">
<path d="M16.5904 44.8085C16.2358 44.6226 16.0992 44.3398 16.1184 43.9447C16.1436 43.4375 16.1244 42.9291 16.1244 42.3563C15.8477 42.3563 15.6009 42.3563 15.3541 42.3563C13.0217 42.3482 10.7408 42.0361 8.54973 41.2226C8.04779 41.0368 7.81059 40.7002 8.01663 40.339C8.14122 40.1216 8.43952 39.9276 8.69468 39.8656C11.0127 39.3093 13.338 38.7845 15.662 38.2492C15.8057 38.2165 15.9495 38.1779 16.1244 38.1335C16.1244 37.5842 16.1124 37.0465 16.1292 36.5089C16.1388 36.1828 15.8788 36.2237 15.6991 36.1851C13.5871 35.7281 11.4727 35.2816 9.35835 34.8317C9.08162 34.7732 8.80489 34.7113 8.52696 34.6563C8.16398 34.585 7.9244 34.3887 7.90403 34.0158C7.88487 33.6617 8.08971 33.4279 8.42634 33.3414C9.82315 32.9838 11.2164 32.6028 12.6276 32.3071C13.423 32.1411 14.2508 32.1247 15.1612 32.0312C13.8183 30.7783 12.5233 29.5697 11.2104 28.3449C11.0319 28.7867 10.8941 29.2098 10.6953 29.6025C10.403 30.1787 9.98127 30.2582 9.46496 29.8479C9.16667 29.6107 8.90192 29.3337 8.59524 29.0496C8.503 29.1502 8.40597 29.253 8.31252 29.3582C7.32182 30.4802 6.12746 31.2914 4.63121 31.635C3.98791 31.7823 3.61056 31.4702 3.66327 30.8274C3.75911 29.6539 4.2862 28.6534 5.03253 27.6868C4.41079 27.6471 3.8274 27.6284 3.24759 27.5699C2.23891 27.4671 1.29611 27.1597 0.434777 26.6314C-0.125866 26.2878 -0.148625 25.7934 0.391652 25.403C1.50216 24.6 2.77679 24.2249 4.13168 24.0694C4.24548 24.0566 4.36047 24.0437 4.58209 24.0192C4.4036 23.8579 4.291 23.7562 4.1772 23.6545C2.92055 22.5243 1.97176 21.2094 1.58363 19.5544C1.36919 18.6369 1.67826 18.3038 2.61506 18.4592C4.3473 18.7467 5.74771 19.6257 6.97442 20.8073C7.07864 20.9078 7.16129 21.0317 7.33859 21.2491C7.41645 20.6846 7.46318 20.2626 7.53505 19.8442C7.69917 18.8881 8.01305 17.9812 8.53416 17.1502C8.95464 16.4804 9.47216 16.4676 9.91181 17.1151C10.7037 18.2804 11.0235 19.5824 11.0702 20.9616C11.075 21.1147 11.087 21.269 11.0954 21.4104C11.7051 21.0621 12.2622 20.6951 12.8636 20.4169C13.2876 20.2206 13.7644 20.1154 14.2292 20.023C14.9252 19.8851 15.2786 20.2451 15.1457 20.9487C14.9336 22.0778 14.4113 23.0689 13.641 23.9315C13.338 24.2704 12.9929 24.5755 12.6791 24.8841C12.9738 25.2148 13.2924 25.5222 13.5512 25.8717C13.8926 26.3322 13.7824 26.7074 13.2661 26.9844C13.0972 27.0755 12.9187 27.1515 12.739 27.2216C12.5749 27.2859 12.4035 27.335 12.164 27.4145C13.4769 28.6394 14.7539 29.8292 16.092 31.0763V18.0735C15.9806 18.1413 15.8824 18.2126 15.7746 18.2664C15.2319 18.5352 14.7036 18.8426 14.137 19.0553C13.6075 19.254 13.1978 19.0132 13.1211 18.4627C13.0277 17.7895 13.0217 17.1057 12.9738 16.3717C12.8228 16.3834 12.5916 16.3986 12.3616 16.4185C10.2484 16.5985 8.25503 16.2397 6.43654 15.134C5.60396 14.6279 5.59796 14.1779 6.397 13.6064C7.75428 12.6363 9.30564 12.2225 10.9564 12.094C11.0606 12.0858 11.1637 12.0834 11.3829 12.0717C11.1553 11.8684 10.9876 11.7234 10.827 11.5715C10.5072 11.2676 10.4653 10.8772 10.7156 10.6002C10.9768 10.3115 11.3793 10.3256 11.7507 10.6178C12.4251 11.1484 13.0972 11.6814 13.7872 12.191C14.0939 12.4177 14.2855 12.6702 14.1514 13.043C14.0076 13.4416 13.6734 13.5175 13.2769 13.472C11.777 13.3013 10.2927 13.3387 8.8516 13.8308C8.48862 13.9547 8.14123 14.1218 7.70757 14.3018C8.50301 14.7413 9.28767 14.9318 10.0915 15.0533C11.3038 15.2368 12.5006 15.1375 13.6937 14.8722C13.9345 14.8184 14.2604 14.8804 14.4688 15.0101C14.7503 15.1854 14.6869 15.5045 14.6138 15.8072C14.4784 16.3624 14.385 16.9269 14.3346 17.5101C15.1085 17.2086 15.6404 16.7002 16.0669 16.0725C16.5676 15.3338 17.0193 15.3303 17.5176 16.0562C17.9669 16.7107 18.5395 17.2215 19.4271 17.6036C19.2798 16.9713 19.1744 16.443 19.0294 15.9229C18.9408 15.6062 18.8246 15.3058 19.0905 15.0206C19.3541 14.7366 19.6631 14.7939 19.9998 14.8745C21.7704 15.3 23.5218 15.2532 25.2408 14.6279C25.3942 14.5718 25.5451 14.5075 25.6949 14.4421C25.7476 14.4187 25.7943 14.3825 25.8937 14.3228C25.0887 13.8471 24.2453 13.5666 23.3624 13.5C22.3849 13.4264 21.3978 13.472 20.4143 13.4661C20.34 13.4661 20.2657 13.4755 20.1902 13.4825C19.8153 13.5164 19.5481 13.3773 19.426 13.0196C19.3074 12.6725 19.4871 12.4539 19.7494 12.2365C20.7928 11.3693 21.8638 10.5278 22.8425 9.59391C23.614 8.85757 24.1303 7.92487 24.528 6.82153C24.3124 6.89166 24.1699 6.93257 24.0309 6.98399C22.0315 7.72852 20.4778 9.04107 19.148 10.6376C19.045 10.7615 18.942 10.8878 18.8437 11.0163C18.6149 11.3167 18.3143 11.3985 17.9752 11.2407C17.653 11.0911 17.5619 10.8223 17.6122 10.474C17.7488 9.53781 17.9069 8.60043 17.9764 7.65839C18.113 5.83156 17.8986 4.05032 17.0744 2.37427C17.0037 2.23168 16.9234 2.09259 16.7976 1.86001C16.6755 2.07857 16.5832 2.23051 16.5041 2.38947C15.5913 4.2385 15.4751 6.20207 15.6476 8.20071C15.7099 8.92536 15.8453 9.64417 15.9555 10.3641C16.013 10.7382 15.989 11.0783 15.5781 11.2466C15.1768 11.4114 14.9061 11.2174 14.6629 10.9111C13.3212 9.22574 11.7003 7.87695 9.66142 7.04828C9.51168 6.9875 9.35595 6.93841 9.07084 6.83673C9.21699 7.17684 9.31762 7.42112 9.42783 7.66073C9.50689 7.83254 9.61232 7.995 9.68659 8.16915C9.83394 8.51745 9.70575 8.86575 9.37631 9.01886C9.02291 9.18249 8.66832 9.10185 8.52936 8.77575C8.14122 7.8676 7.77705 6.94542 7.48595 6.00338C7.34818 5.5569 7.83096 5.21327 8.35447 5.30794C9.78602 5.56859 11.087 6.14246 12.2778 6.94425C12.9594 7.40359 13.5967 7.92604 14.2592 8.42395C14.2592 7.55553 14.2173 6.68478 14.2676 5.81871C14.3814 3.87617 14.9432 2.06922 16.1148 0.467973C16.5736 -0.159669 17.0265 -0.156163 17.4841 0.479661C19.0809 2.6992 19.493 5.20275 19.3301 7.84306C19.3205 8.00318 19.3026 8.16214 19.2906 8.32226C19.2882 8.35031 19.2966 8.37953 19.3086 8.49057C19.4535 8.36434 19.5661 8.26967 19.6763 8.17149C21.2456 6.77244 22.9887 5.68897 25.127 5.32898C25.9093 5.19691 26.2411 5.5569 26.0626 6.33765C25.6338 8.20188 24.6179 9.7365 23.2762 11.0935C22.9659 11.4079 22.6856 11.7515 22.4196 12.0519C22.8545 12.1103 23.4068 12.1664 23.953 12.2599C25.2085 12.4726 26.3585 12.9355 27.372 13.6999C27.9985 14.1721 27.9829 14.6209 27.33 15.0487C27.2306 15.1141 27.1348 15.1866 27.0258 15.2333C26.8006 15.3292 26.7538 15.4542 26.7946 15.7079C26.9204 16.4921 26.9934 17.2834 27.0905 18.1051C27.3624 17.8877 27.6307 17.6679 27.9051 17.4552C29.1114 16.5237 30.4555 15.8972 31.9949 15.709C32.1135 15.695 32.2321 15.6798 32.3519 15.6763C33.0167 15.6553 33.3186 16.0188 33.1449 16.6534C32.8718 17.6527 32.4082 18.5714 31.705 19.3416C31.094 20.0114 30.41 20.6156 29.8074 21.2C30.5717 21.442 31.4175 21.6629 32.2213 21.9831C32.7388 22.1888 33.2204 22.5067 33.6732 22.834C34.4519 23.3962 34.3752 23.9046 33.4887 24.316C32.1362 24.9425 30.7059 25.0454 29.242 24.9121C29.139 24.9028 29.0359 24.8911 28.885 24.8759C29.0515 25.1587 29.2025 25.4065 29.3438 25.659C29.7775 26.4374 30.035 27.2661 30.0865 28.1543C30.1297 28.9094 29.7415 29.2214 29.0072 28.9935C27.5433 28.54 26.4124 27.6459 25.502 26.4619C25.4049 26.3345 25.3103 26.206 25.2025 26.061C24.8587 26.3334 24.5436 26.6162 24.195 26.85C23.6727 27.2006 23.2606 27.0837 23.0198 26.5087C22.8461 26.0949 22.7395 25.6543 22.5898 25.1868C22.5299 25.223 22.4304 25.2674 22.3478 25.3329C20.8132 26.5648 19.2774 27.7944 17.7548 29.0403C17.617 29.1537 17.4913 29.3652 17.4865 29.5359C17.4589 30.3926 17.4745 31.2516 17.4745 32.1341C19.6667 32.4087 21.8231 32.6939 23.4487 34.3349C23.4942 34.3221 23.5457 34.3209 23.5757 34.2952C26.0638 32.2042 29 31.0167 32.1698 30.3984C33.9931 30.0431 35.8595 29.8725 37.7139 29.6948C38.9406 29.5779 39.8127 30.3867 39.8978 31.5707C39.9816 32.736 39.2581 33.5834 38.0517 33.7365C36.3063 33.9574 34.5453 34.0965 32.8215 34.4202C30.7263 34.813 28.7544 35.5727 27.0102 36.8163C26.9144 36.8852 26.8185 36.9554 26.7275 37.0302C26.6963 37.0559 26.6784 37.0991 26.6436 37.1517C27.8116 38.0505 29.1282 38.6513 30.5166 39.12C30.6712 39.1726 30.8281 39.2193 30.9814 39.2766C31.3971 39.432 31.5612 39.7242 31.4426 40.0866C31.3145 40.4781 30.9922 40.6464 30.5573 40.5132C29.0839 40.0608 27.6787 39.4636 26.3993 38.6069C26.2771 38.525 26.1537 38.4456 26.1237 38.4748C25.7931 38.8009 25.4624 39.127 25.0923 39.4928C25.6397 39.8201 26.2902 40.2537 26.9815 40.6137C29.5211 41.9379 32.2704 42.5714 35.1108 42.8718C35.9865 42.9641 36.8682 43.0074 37.7475 43.0518C38.3608 43.0822 38.6375 42.873 38.6675 42.4101C38.6986 41.9157 38.4327 41.6714 37.8277 41.6258C36.7999 41.5487 35.772 41.4762 34.7466 41.3781C34.5202 41.3559 34.2303 41.2974 34.1021 41.1466C33.9679 40.9889 33.902 40.6674 33.9751 40.4804C34.0458 40.2981 34.3357 40.0655 34.5178 40.0749C35.8439 40.1427 37.176 40.2104 38.4902 40.3881C39.4857 40.5225 40.105 41.5207 39.9852 42.5656C39.8642 43.6245 39.1107 44.3655 38.0853 44.3655C36.0931 44.3655 34.1201 44.1446 32.171 43.7495C29.442 43.1967 26.8605 42.2886 24.5652 40.7025C24.2142 40.4594 23.88 40.1952 23.5242 39.9311C21.9033 41.6294 19.7231 41.9519 17.4745 42.257C17.4745 42.7993 17.4565 43.3335 17.4805 43.8653C17.4984 44.2626 17.3774 44.5735 17.0444 44.8038H16.5964L16.5904 44.8085ZM32.1398 23.4219C31.9458 23.3144 31.8475 23.2501 31.7421 23.2022C30.4268 22.6037 29.0347 22.4156 27.5984 22.4682C27.2198 22.4822 26.9144 22.384 26.7934 21.9936C26.6724 21.6021 26.8629 21.3531 27.2019 21.1755C27.3337 21.1065 27.4594 21.027 27.5876 20.9546C28.7592 20.2942 29.8494 19.5322 30.6927 18.4837C31.0066 18.0934 31.2581 17.6539 31.5385 17.2378C30.5765 17.3395 29.7691 17.6925 29.1006 18.2465C28.2285 18.97 27.4295 19.7788 26.6089 20.5607C26.3597 20.7991 26.1034 20.9195 25.7691 20.757C25.4217 20.5876 25.3319 20.3094 25.4073 19.9529C25.4816 19.5964 25.5655 19.24 25.6026 18.8788C25.7044 17.9075 25.7236 16.9374 25.4696 15.9884C25.0887 15.9779 24.9497 16.1777 24.8683 16.4781C24.5592 17.62 24.5101 18.7795 24.6155 19.9471C24.6502 20.3339 24.5927 20.6612 24.1842 20.8038C23.7829 20.9429 23.5373 20.729 23.2834 20.4263C22.7479 19.787 22.1753 19.1745 21.5835 18.5843C21.3606 18.3622 21.042 18.2325 20.7677 18.0606C20.7665 18.3458 20.8312 18.5515 20.9258 18.7432C21.3954 19.6934 22.0794 20.4672 22.9503 21.0937C23.5134 21.4992 23.4379 22.0603 22.809 22.3466C22.5334 22.4728 22.2663 22.6178 21.9956 22.7545L22.0255 22.9333C22.4616 22.9333 22.8988 22.945 23.3349 22.931C24.0381 22.9088 24.304 23.2466 24.1423 23.9163C24.0429 24.3277 24.0129 24.7567 23.9518 25.1774C24.0057 25.1938 24.0596 25.2102 24.1135 25.2265C24.2992 24.9682 24.4825 24.7099 24.6706 24.4539C25.0084 23.9934 25.5858 24.0156 25.8757 24.5019C25.95 24.6269 26.0075 24.7637 26.0782 24.8911C26.6616 25.9477 27.4558 26.8032 28.5975 27.3455C28.4154 26.8535 28.2357 26.3532 27.9374 25.9348C27.5205 25.3539 27.0198 24.828 26.543 24.2891C26.319 24.0355 26.2747 23.7725 26.434 23.4874C26.5873 23.2127 26.8389 23.1098 27.1528 23.1765C27.3708 23.2232 27.5864 23.2828 27.8044 23.3342C29.212 23.6615 30.6232 23.8205 32.1422 23.4219H32.1398ZM2.07958 25.9687C2.35511 26.0517 2.55037 26.1218 2.75043 26.1674C4.04422 26.4631 5.33083 26.3509 6.61503 26.1008C6.99958 26.026 7.37692 26.0073 7.57818 26.428C7.77225 26.8348 7.565 27.1106 7.24754 27.3654C6.47846 27.9825 5.83516 28.7048 5.39431 29.5838C5.32962 29.7123 5.2841 29.8514 5.19784 30.0641C5.35597 29.9952 5.40989 29.9742 5.4614 29.9484C6.55633 29.3968 7.36256 28.5611 7.97951 27.5314C8.3329 26.9423 8.92348 26.9622 9.26969 27.5536C9.40745 27.7885 9.55601 28.0176 9.69857 28.249C9.74648 28.2373 9.7944 28.2256 9.84351 28.2128C9.82195 27.8446 9.83154 27.4706 9.77164 27.1083C9.63028 26.2562 9.91179 25.9862 10.7983 26.1101C11.1457 26.158 11.5051 26.1183 11.8585 26.1183C11.6896 25.8927 11.5099 25.7653 11.317 25.6625C10.5108 25.237 10.4856 24.7356 11.2535 24.2471C12.1472 23.6779 12.8504 22.938 13.3511 22.0193C13.4206 21.8931 13.4685 21.7552 13.5691 21.5238C13.2912 21.6594 13.1283 21.7295 12.9738 21.8148C12.1005 22.2975 11.4116 22.9778 10.8067 23.7468C10.597 24.0145 10.3371 24.1547 9.98966 24.0168C9.63267 23.8754 9.52247 23.6101 9.56679 23.2431C9.63747 22.6645 9.70935 22.0848 9.72852 21.5039C9.75846 20.5782 9.66742 19.6654 9.23616 18.6789C9.12595 19.0261 9.04089 19.254 8.97979 19.4877C8.67911 20.6472 8.63718 21.8207 8.83245 22.9988C8.89474 23.3728 8.81927 23.6673 8.44431 23.8321C8.05857 24.0016 7.78544 23.8321 7.56142 23.5318C7.42965 23.3553 7.29786 23.1776 7.15889 23.007C6.17657 21.7961 5.08525 20.7091 3.5926 20.0955C3.45483 20.0394 3.30988 20.0008 3.16852 19.9541C3.13737 19.9915 3.10622 20.0289 3.07507 20.0663C3.4129 20.5922 3.71718 21.1439 4.09693 21.6395C4.84805 22.6201 5.83397 23.3576 6.8726 24.0273C7.21761 24.2494 7.5075 24.4843 7.35416 24.9448C7.23197 25.3107 6.95165 25.4088 6.34908 25.3668C5.82916 25.3305 5.30447 25.3013 4.78456 25.3282C3.87411 25.3761 2.98523 25.5362 2.07838 25.9675L2.07958 25.9687ZM17.4877 27.5431C18.9312 26.3813 20.3005 25.2779 21.6733 24.1734C21.2636 23.9712 20.9054 23.8228 20.5772 23.6264C20.0609 23.3179 20.0082 22.9333 20.3843 22.4588C20.6574 22.114 20.9366 21.7739 21.1738 21.4794C20.7221 20.8015 20.1831 19.9892 19.6404 19.178C19.6021 19.1207 19.5457 19.0611 19.4834 19.0331C18.8198 18.7269 18.1525 18.4276 17.4865 18.1261V27.5419L17.4877 27.5431ZM26.1021 35.824C28.6358 34.0088 31.6475 33.1498 34.8161 32.7267C35.8056 32.5946 36.8059 32.5385 37.8014 32.4497C38.1919 32.4146 38.4998 32.2802 38.5645 31.8536C38.6459 31.3194 38.3069 30.9513 37.7211 31.005C36.3698 31.1289 35.0125 31.2294 33.6744 31.4387C31.0785 31.8442 28.5975 32.6098 26.3346 33.9551C25.859 34.2379 25.4097 34.564 25.0671 34.7919C25.4193 35.1437 25.7404 35.4628 26.1021 35.824ZM22.2663 39.2894C22.0303 39.0405 21.7775 38.8418 21.617 38.5882C21.4493 38.3217 21.2732 38.2995 20.9941 38.3638C18.7311 38.8932 16.4658 39.4098 14.2029 39.9323C13.3176 40.1368 12.4335 40.346 11.5494 40.5529C11.9148 40.7095 12.2766 40.775 12.6383 40.8276C15.2283 41.2027 17.7884 41.0952 20.3041 40.3437C21.0348 40.1251 21.7176 39.8154 22.2663 39.2894ZM22.2375 35.0081C20.8623 33.9142 19.1924 33.7108 17.4709 33.4782C17.4709 34.0334 17.4601 34.5114 17.4805 34.9894C17.4841 35.0841 17.5967 35.2361 17.6829 35.2559C18.9132 35.5306 20.1471 35.7877 21.3199 36.0355C21.647 35.6697 21.9285 35.3541 22.2375 35.0081ZM23.741 35.9572C23.0318 35.9549 22.4771 36.4832 22.4843 37.154C22.4915 37.8214 23.0258 38.3392 23.7062 38.3392C24.3843 38.3392 24.9282 37.8132 24.9294 37.1564C24.9294 36.4574 24.437 35.9595 23.741 35.9572ZM16.0992 34.924V33.394C14.5131 33.3742 12.975 33.5027 11.4608 33.9352C12.9953 34.2625 14.5299 34.5897 16.0992 34.924ZM20.5568 16.415C21.4757 16.9912 22.3562 17.544 23.2235 18.0875C23.3001 17.5674 23.384 16.9994 23.469 16.415H20.5568ZM20.1435 37.216C20.1423 37.1879 20.1399 37.1587 20.1387 37.1307C19.2678 36.946 18.3969 36.7613 17.508 36.572V37.8261C18.4149 37.6157 19.2798 37.4159 20.1447 37.216H20.1435Z" fill="white"/>
</svg>
