<svg width="32" height="39" viewBox="0 0 32 39" fill="none" xmlns="http://www.w3.org/2000/svg">
<path d="M16.0004 12.2C19.0932 12.2 21.6004 9.69279 21.6004 6.6C21.6004 3.50721 19.0932 1 16.0004 1C12.9076 1 10.4004 3.50721 10.4004 6.6C10.4004 9.69279 12.9076 12.2 16.0004 12.2Z" stroke="white" stroke-width="2" stroke-miterlimit="10" stroke-linecap="round" stroke-linejoin="round"/>
<path d="M13.4 15.7285C9.452 15.9045 7.888 19.8165 6.588 22.9565C5.496 25.5925 3.78 27.3205 1 28.1285" stroke="white" stroke-width="2" stroke-miterlimit="10" stroke-linecap="round" stroke-linejoin="round"/>
<path d="M18.5996 15.7285C22.5476 15.9045 24.1116 19.8165 25.4116 22.9565C26.5036 25.5925 28.2196 27.3205 30.9996 28.1285" stroke="white" stroke-width="2" stroke-miterlimit="10" stroke-linecap="round" stroke-linejoin="round"/>
<path d="M20.7995 22.4004C20.7995 23.9524 20.7995 25.5044 20.7995 27.0524C20.7995 27.4724 21.0875 27.8484 21.4995 27.9364C22.4555 28.1404 24.0714 28.8324 24.2434 28.9084C25.7234 29.5484 27.3435 30.1884 28.6995 31.0604C30.0675 31.9404 31.0155 33.4564 30.5955 35.1244C29.5235 39.3804 22.5235 36.9524 19.9995 35.7804C18.3275 35.0004 16.9595 34.2964 15.9995 33.7804V33.7964C15.0395 34.3124 13.6715 35.0164 11.9995 35.7964C9.47545 36.9684 2.47945 39.4004 1.40345 35.1404C0.983447 33.4684 1.92746 31.9524 3.29946 31.0764C4.65546 30.2044 6.27545 29.5644 7.75545 28.9244C7.92745 28.8524 9.54345 28.1564 10.4995 27.9524C10.9115 27.8644 11.1995 27.4884 11.1995 27.0684C11.1995 25.5164 11.1995 23.9644 11.1995 22.4164" stroke="white" stroke-width="2" stroke-linecap="round" stroke-linejoin="round"/>
</svg>
