<svg width="40" height="40" viewBox="0 0 40 40" fill="none" xmlns="http://www.w3.org/2000/svg">
<path d="M0 20C0 8.9543 8.9543 0 20 0C31.0457 0 40 8.9543 40 20C40 31.0457 31.0457 40 20 40C8.9543 40 0 31.0457 0 20Z" fill="#55ACEE"/>
<path d="M19.401 16.2567L19.443 16.9488L18.7435 16.864C16.1974 16.5392 13.973 15.4376 12.0844 13.5874L11.1611 12.6694L10.9233 13.3473C10.4197 14.8585 10.7414 16.4545 11.7907 17.5278C12.3503 18.121 12.2243 18.2058 11.2591 17.8527C10.9233 17.7397 10.6295 17.655 10.6016 17.6973C10.5036 17.7962 10.8394 19.0814 11.1052 19.5899C11.4689 20.296 12.2104 20.9881 13.0218 21.3976L13.7072 21.7225L12.8958 21.7366C12.1124 21.7366 12.0844 21.7507 12.1684 22.0473C12.4482 22.9653 13.5534 23.9399 14.7844 24.3636L15.6518 24.6601L14.8964 25.1121C13.7772 25.7618 12.4622 26.129 11.1471 26.1572C10.5176 26.1713 10 26.2278 10 26.2702C10 26.4114 11.7067 27.2023 12.7 27.5131C15.6798 28.4311 19.2191 28.0356 21.8772 26.4679C23.7658 25.3522 25.6543 23.1348 26.5357 20.9881C27.0113 19.8441 27.487 17.7538 27.487 16.7511C27.487 16.1014 27.5289 16.0166 28.3124 15.2399C28.774 14.7879 29.2077 14.2936 29.2916 14.1524C29.4315 13.884 29.4175 13.884 28.7041 14.1241C27.515 14.5478 27.3471 14.4913 27.9346 13.8558C28.3683 13.4038 28.8859 12.5847 28.8859 12.3446C28.8859 12.3022 28.6761 12.3728 28.4383 12.4999C28.1865 12.6412 27.6269 12.853 27.2072 12.9801L26.4518 13.2202L25.7663 12.7541C25.3885 12.4999 24.8569 12.2175 24.5771 12.1327C23.8637 11.935 22.7725 11.9632 22.129 12.1892C20.3803 12.8248 19.2751 14.4631 19.401 16.2567Z" fill="white"/>
</svg>
