<svg width="41" height="40" viewBox="0 0 41 40" fill="none" xmlns="http://www.w3.org/2000/svg">
<path d="M0.5 19.7803C1.18983 16.6437 1.48329 13.347 2.64951 10.3971C5.93857 2.10015 11.3047 -1.3261 20.4173 0.461344C27.5633 1.86386 32.6017 5.73984 35.8259 12.1922C36.9426 14.4294 37.7468 16.838 39.8849 18.5188C40.9558 19.361 40.4946 20.653 39.5228 21.6897C38.6767 22.5891 37.9373 23.6105 37.2971 24.67C35.8907 26.9987 34.835 29.5865 33.1772 31.7093C27.9558 38.3865 20.806 40.3988 12.6882 39.3279C9.29623 38.882 6.89899 36.5914 4.94766 33.9045C2.26077 30.2077 0.877308 25.2913 0.5 19.7841L0.5 19.7803ZM1.55189 20.1919C1.73483 25.1655 2.96203 29.9066 6.10245 33.9732C11.1828 40.5551 19.3997 40.3455 24.2056 33.5654C26.6943 30.0552 27.9787 26.103 28.295 21.8497C28.7066 16.2473 27.7005 10.9421 24.3542 6.31152C22.1209 3.22445 19.2396 0.899632 15.2188 0.884387C10.5958 0.869142 7.36015 3.39977 5.04294 7.19572C2.63427 11.1441 1.6929 15.5155 1.55189 20.1881V20.1919Z" fill="#F27C2D"/>
<path d="M17.5897 18.9648C20.0365 16.9334 22.4795 14.8983 25.0826 12.7373C26.405 15.4394 26.5194 18.0501 26.264 20.6989C26.2373 20.9733 25.6466 21.4573 25.4141 21.4078C22.8073 20.8399 20.2157 20.1882 17.6202 19.5593C17.6088 19.365 17.5974 19.1668 17.5859 18.9724L17.5897 18.9648Z" fill="#F27C2D"/>
<path d="M4.92907 12.665C7.61215 14.9327 10.0132 16.9641 12.9059 19.4108C9.80358 20.1617 7.17767 20.821 4.5327 21.3927C4.3269 21.4384 3.77809 20.8858 3.75141 20.5809C3.52274 17.9893 3.63707 15.432 4.92907 12.665Z" fill="#F27C2D"/>
<path d="M12.6199 22.1013C10.8173 25.1884 9.01837 28.2792 7.07085 31.6178C5.02043 29.3654 4.46019 26.8843 4.1934 24.308C4.16672 24.0374 4.6698 23.5305 5.009 23.439C7.42529 22.7873 9.86446 22.2195 12.2998 21.6211C12.4065 21.7812 12.5132 21.9374 12.6238 22.0975L12.6199 22.1013Z" fill="#F27C2D"/>
<path d="M14.0644 24.1975C14.0644 27.8562 14.0568 31.5111 14.0682 35.1699C14.0721 36.4314 13.63 36.9878 12.3418 36.42C11.7701 36.1646 11.1565 35.9702 10.6344 35.6387C8.35908 34.1828 8.21425 33.5311 9.54436 31.2291C10.9278 28.8357 12.3151 26.4423 13.7024 24.0488C13.8243 24.0984 13.9425 24.1517 14.0644 24.2013V24.1975Z" fill="#F27C2D"/>
<path d="M17.6883 21.5254C20.2608 22.2305 22.8372 22.9165 25.3945 23.6749C25.627 23.7435 25.8938 24.3037 25.8518 24.5896C25.4745 27.0211 24.9829 29.4222 22.9287 31.5679C21.0193 28.2598 19.2128 25.1346 17.4062 22.0056L17.6921 21.5254H17.6883Z" fill="#F27C2D"/>
<path d="M10.2416 4.98944C11.244 8.91497 12.2463 12.8367 13.3783 17.2691C10.7981 15.112 8.57996 13.3512 6.49905 11.4418C6.09507 11.0683 5.90832 9.92493 6.17891 9.45235C7.12409 7.8021 8.30937 6.28906 9.40318 4.72266L10.2416 4.98563V4.98944Z" fill="#F27C2D"/>
<path d="M16.9414 16.2853C17.8942 12.5085 18.847 8.73155 19.8646 4.70312C22.1666 6.10183 23.3633 7.90453 24.095 10.0388C24.2055 10.3627 24.0417 10.9763 23.7825 11.2012C21.6482 13.0611 19.4606 14.86 17.2882 16.6779L16.9414 16.2853Z" fill="#F27C2D"/>
<path d="M14.8379 15.0166C13.9614 11.5561 13.0505 8.10313 12.2463 4.62732C12.1587 4.2462 12.5703 3.45347 12.9171 3.33152C13.7746 3.03043 14.7579 2.80176 15.6459 2.90847C17.8793 3.17526 18.066 3.55637 17.5248 5.72113C16.7512 8.81963 15.9889 11.9219 15.2229 15.0243C15.0933 15.0243 14.9675 15.0204 14.8379 15.0166Z" fill="#F27C2D"/>
<path d="M16.3164 24.0713C18.0276 27.025 19.594 29.5518 20.9432 32.1929C21.2367 32.7684 21.0499 34.049 20.5926 34.4568C19.4721 35.4515 18.0657 36.1261 16.3164 37.2161V24.0713Z" fill="#F27C2D"/>
</svg>
