<svg width="41" height="42" viewBox="0 0 41 42" fill="none" xmlns="http://www.w3.org/2000/svg">
<path d="M0.635523 41.487C-0.0914519 37.8283 2.18084 34.7217 5.66476 34.6184C6.87242 34.5827 7.54775 34.3404 7.96487 33.089C8.78321 30.6419 10.5788 29.2913 13.2166 29.4104C14.6824 29.478 15.032 28.8185 14.9804 27.5235C14.9128 25.8073 15.0002 24.0833 14.9605 22.3631C14.9327 21.3104 15.3379 20.8059 16.4105 20.6748C18.0432 20.4762 19.6839 20.2458 21.2689 19.8287C21.829 19.6817 22.6315 18.9547 22.6474 18.474C22.7626 14.7081 22.6911 10.9341 22.7229 7.1642C22.7308 6.1075 22.2462 5.74202 21.2689 5.82545C21.0067 5.84531 20.7406 5.82545 20.4744 5.82545C17.5427 5.80956 16.9865 5.11039 17.3242 2.1429C17.495 0.617443 18.1187 -0.038027 19.7435 0.00169846C23.6445 0.101012 27.5495 0.104985 31.4505 0.00567101C33.7109 -0.0499446 33.6672 1.47948 33.6672 2.92549C33.6672 4.36355 33.7268 6.00818 31.4545 5.82942C30.5488 5.75791 29.6311 5.8175 28.5347 5.8175C28.487 6.70735 28.4155 7.41049 28.4155 8.11363C28.4076 13.6712 28.491 19.2288 28.352 24.7824C28.3162 26.149 27.7918 27.6387 27.0728 28.8185C26.0399 30.5148 25.019 30.4751 23.9305 28.755C23.2909 27.7459 22.993 26.4668 22.7586 25.271C22.5759 24.3415 22.7229 23.3444 22.7229 22.1288C21.0345 22.3751 19.6799 22.522 18.3491 22.7962C17.9876 22.8716 17.4195 23.3364 17.4275 23.6105C17.5387 27.015 16.3787 30.6538 18.9926 33.5498C20.2837 33.2042 21.4477 32.7394 22.6553 32.5964C24.8998 32.3342 26.6875 33.2717 27.7998 35.2302C28.5426 36.5372 29.2855 36.3902 30.3541 35.6751C32.7694 34.0583 34.3743 32.1038 33.8698 28.9496C33.7149 27.9803 33.842 26.9673 33.846 25.9782C33.8539 24.548 34.1837 23.0027 31.9908 22.7008C31.7127 22.6611 31.6134 21.2826 31.4545 20.6152C31.959 20.4166 32.0266 20.361 32.0782 20.3729C34.8643 20.9794 36.256 22.7141 36.2533 25.5769C36.2533 26.5701 36.1064 27.5672 36.1977 28.5484C36.4917 31.6907 35.8164 34.4516 33.3454 36.6047C33.119 36.8033 33.0118 37.137 32.5986 37.8203C35.5939 38.4519 39.2804 37.4747 40.5 41.479H0.635523V41.487Z" fill="#8E4A2A"/>
</svg>
