<svg width="41" height="41" viewBox="0 0 41 41" fill="none" xmlns="http://www.w3.org/2000/svg">
<path d="M32.0026 16.7279C33.9094 26.8227 26.3016 33.5564 16.729 31.491C16.6826 32.1911 16.7676 32.8989 16.5743 33.5177C16.0096 35.3317 15.5841 37.2501 14.6443 38.8629C13.4762 40.8664 12.3778 40.6653 11.4147 38.5883C11.3876 38.5303 11.3606 38.4723 11.3451 38.4104C10.8694 36.3025 9.98366 34.9758 7.38455 35.1654C5.57445 35.2969 5.2573 33.4868 5.26504 32.0634C5.27664 30.7329 4.78544 30.2147 3.57484 29.7389C2.4416 29.2941 1.51721 28.3117 0.5 27.5614C1.48627 26.637 2.3217 25.3607 3.48975 24.8695C5.15674 24.1655 7.06353 24.0379 9.09022 23.6163C8.20064 19.2806 8.6609 15.0996 12.0838 11.6573C15.5338 8.18024 19.7458 7.90177 24.1009 8.74493C24.5108 6.71824 24.6501 4.7573 25.354 3.02456C25.8336 1.84878 27.1099 0.994005 28.0305 0C28.7383 1.08683 29.682 2.09244 30.0881 3.27983C30.5213 4.54071 31.0666 4.98163 32.3933 4.97003C34.9111 4.94295 35.5184 5.53472 35.5609 7.99846C35.5841 9.35217 35.9709 10.0097 37.3401 10.4699C38.5043 10.8606 39.4557 11.8894 40.5 12.6397C39.5717 13.5448 38.7905 14.794 37.6766 15.2698C35.9013 16.0279 33.9055 16.2677 31.991 16.7318L32.0026 16.7279ZM15.704 26.637C15.7775 26.3469 15.8549 26.053 15.9284 25.7629C16.787 25.9524 17.6379 26.2193 18.5043 26.3121C20.8906 26.5751 23.2886 26.9464 25.6828 26.9271C27.4116 26.9116 28.4675 25.4148 28.3708 23.9296C22.3565 24.5407 18.5777 19.3928 13.279 18.2015C14.9846 17.2501 16.3267 18.2209 17.7036 18.8784C20.1906 20.0619 22.6118 21.3963 25.1567 22.4444C26.0889 22.8273 27.4232 22.8892 28.3205 22.5063C29.0129 22.2085 29.5389 21.025 29.6936 20.1586C29.7941 19.59 29.2527 18.5612 28.7189 18.2943C25.4623 16.6622 22.1206 15.2002 18.8175 13.6531C18.4733 13.4906 18.218 13.1348 17.9202 12.8679L18.2374 12.2646C21.6951 13.9354 25.1529 15.6024 28.6106 17.2733C27.8757 13.6221 24.4954 11.0192 21.2387 10.9109C16.7599 10.7561 13.0933 13.158 11.6352 17.1959C10.3472 20.7658 11.612 24.8463 14.799 27.3796C17.3401 29.3986 20.9487 29.9826 22.9753 28.6831C20.5464 27.9985 18.1291 27.3216 15.7079 26.6409L15.704 26.637ZM27.6398 4.88494C26.3055 6.78012 26.611 9.07369 28.3786 11.1971C30.2815 13.4752 33.1668 14.2332 35.7582 13.069C35.5068 12.9066 35.3211 12.7093 35.0968 12.6475C33.4466 12.1756 32.7697 11.0772 33.0662 9.35217C33.337 7.78187 32.7297 7.20944 31.1362 7.54206C29.3313 7.91594 28.2664 7.25715 27.9415 5.56566C27.899 5.35294 27.7636 5.15568 27.6398 4.88494ZM13.3022 35.3626C14.563 33.3823 14.095 30.6053 12.254 28.6869C10.208 26.5519 7.46577 25.9524 5.2689 27.1592C5.35013 27.2559 5.42361 27.4261 5.5087 27.4299C7.99952 27.5885 8.85815 28.6212 7.90282 31.1507C7.40389 32.4696 8.27799 33.0342 9.84829 32.6668C11.5295 32.2723 12.5699 32.935 12.9695 34.6548C13.0237 34.883 13.1707 35.088 13.306 35.3588L13.3022 35.3626Z" fill="#FF71CB"/>
</svg>
