<svg width="113" height="126" viewBox="0 0 113 126" fill="none" xmlns="http://www.w3.org/2000/svg">
<path fill-rule="evenodd" clip-rule="evenodd" d="M64.4435 31.6008C62.7537 21.0627 55.7128 6.00262 53.2771 0.9579C51.3178 6.15002 45.4384 21.7294 44.5392 32.3568C43.559 45.3118 52.3484 68.9856 52.3484 68.9856C52.3484 68.9856 35.8589 48.3336 24.9998 41.4021C14.0696 34.4924 4.26981 29.2612 4.26981 29.2612C4.26981 29.2612 15.4901 54.0103 23.6997 62.7203C32.0038 71.4766 43.6623 77.0273 43.6623 77.0273C43.6623 77.0273 18.2192 73.8781 0.461169 79.5366C0.461169 79.5366 13.305 88.332 24.4498 88.6592C35.5946 88.9864 44.2763 86.9763 44.2763 86.9763C44.2763 86.9763 30.4852 95.6485 27.0159 109.217C27.0159 109.217 45.0837 107.5 56.1858 87.6792L57.0216 125.974L58.043 125.942L58.2101 125.964L59.2315 125.933L57.1367 87.6718C69.6932 106.569 87.8477 106.965 87.8477 106.965C83.2883 93.597 68.9562 86.0217 68.9562 86.0217C68.9562 86.0217 77.757 87.3867 88.8679 86.2166C99.9084 85.0706 112.052 75.2918 112.052 75.2918C93.9172 70.999 68.8173 76.0679 68.8173 76.0679C68.8173 76.0679 79.9391 69.5765 87.5715 60.3042C95.1095 50.9855 104.388 25.3564 104.388 25.3564C104.388 25.3564 95.0207 31.409 84.7165 39.1303C74.3396 46.8764 59.4762 68.6947 59.4762 68.6947C59.4762 68.6947 66.4584 44.4826 64.445 31.5978L64.4435 31.6008Z" fill="#D2E6DC"/>
</svg>
